<?xml version="1.0" encoding="UTF-8" standalone="no"?>
<svg
   width="200"
   height="105.33869"
   viewBox="0 0 200 105.33869"
   fill="none"
   version="1.1"
   id="svg40"
   sodipodi:docname="Logos2.svg"
   inkscape:version="1.1-dev (1:1.0+devel+202012192008+87f22beb96)"
   xmlns:inkscape="http://www.inkscape.org/namespaces/inkscape"
   xmlns:sodipodi="http://sodipodi.sourceforge.net/DTD/sodipodi-0.dtd"
   xmlns="http://www.w3.org/2000/svg"
   xmlns:svg="http://www.w3.org/2000/svg"
   xmlns:rdf="http://www.w3.org/1999/02/22-rdf-syntax-ns#"
   xmlns:cc="http://creativecommons.org/ns#"
   xmlns:dc="http://purl.org/dc/elements/1.1/">
  <sodipodi:namedview
     id="namedview14"
     pagecolor="#ffffff"
     bordercolor="#999999"
     borderopacity="1"
     objecttolerance="10.0"
     gridtolerance="10.0"
     guidetolerance="10.0"
     inkscape:pageshadow="0"
     inkscape:pageopacity="0"
     inkscape:pagecheckerboard="0"
     showgrid="false"
     inkscape:zoom="2.9903542"
     inkscape:cx="91.126328"
     inkscape:cy="-17.389244"
     inkscape:window-width="1920"
     inkscape:window-height="1051"
     inkscape:window-x="0"
     inkscape:window-y="0"
     inkscape:window-maximized="1"
     inkscape:current-layer="svg40" />
  <metadata
     id="metadata44">
    <rdf:RDF>
      <cc:Work
         rdf:about="">
        <dc:format>image/svg+xml</dc:format>
        <dc:type
           rdf:resource="http://purl.org/dc/dcmitype/StillImage" />
      </cc:Work>
    </rdf:RDF>
  </metadata>
  <mask
     id="mask0"
     mask-type="alpha"
     maskUnits="userSpaceOnUse"
     x="58"
     y="258"
     width="132"
     height="52">
    <path
       d="m 58.457,281.098 c 0.1641,-1.36 0.4571,-2.649 0.8789,-3.868 0.4219,-1.242 0.9375,-2.437 1.5469,-3.585 0.6094,-1.172 1.2891,-2.321 2.0391,-3.446 0.75,-1.125 1.5469,-2.261 2.3906,-3.41 0.4922,-0.633 1.0313,-1.277 1.6172,-1.934 0.5859,-0.656 1.2187,-1.253 1.8984,-1.793 0.6797,-0.539 1.4063,-0.972 2.1797,-1.3 0.7969,-0.352 1.6289,-0.528 2.4961,-0.528 0.4688,0 0.832,0.036 1.0899,0.106 0.2578,0.047 0.4453,0.164 0.5624,0.351 0.1407,0.164 0.2227,0.411 0.2461,0.739 0.0235,0.328 0.0235,0.75 0,1.265 0,0.586 -0.1054,1.184 -0.3164,1.793 -0.2109,0.61 -0.5039,1.184 -0.8789,1.723 -0.375,0.539 -0.8203,1.019 -1.3359,1.441 -0.5156,0.399 -1.0664,0.692 -1.6523,0.879 v -0.492 c 0,-0.492 0.1054,-0.961 0.3164,-1.406 0.2343,-0.445 0.4921,-0.891 0.7734,-1.336 0.2812,-0.469 0.5273,-0.949 0.7383,-1.442 0.2343,-0.492 0.3515,-1.019 0.3515,-1.582 -0.2578,0 -0.4804,-0.011 -0.6679,-0.035 -0.1875,-0.047 -0.3633,-0.07 -0.5274,-0.07 -0.1406,-0.023 -0.2929,0 -0.457,0.07 -0.1406,0.047 -0.3164,0.164 -0.5273,0.352 -1.1485,0.937 -2.3321,2.039 -3.5508,3.305 -1.1953,1.242 -2.2852,2.589 -3.2696,4.043 -0.9843,1.453 -1.7929,2.976 -2.4257,4.57 -0.6094,1.57 -0.9141,3.152 -0.9141,4.746 0,0.07 0,0.187 0,0.351 0.0234,0.165 0.0352,0.329 0.0352,0.493 0.0234,0.164 0.0468,0.316 0.0703,0.457 0.0234,0.14 0.0351,0.222 0.0351,0.246 0.2578,0.258 0.5625,0.41 0.9141,0.457 0.375,0.047 0.6562,0.07 0.8437,0.07 1.0078,0 1.9453,-0.176 2.8125,-0.527 0.8907,-0.352 1.7578,-0.727 2.6016,-1.125 0.8437,-0.422 1.6875,-0.809 2.5312,-1.16 0.8672,-0.352 1.7813,-0.528 2.7422,-0.528 0,0.375 -0.2226,0.797 -0.6679,1.266 -0.4219,0.445 -0.9844,0.891 -1.6875,1.336 -0.6797,0.445 -1.4414,0.879 -2.2852,1.301 -0.8437,0.398 -1.6758,0.761 -2.4961,1.089 -0.7969,0.329 -1.5351,0.586 -2.2148,0.774 -0.6563,0.187 -1.1602,0.281 -1.5118,0.281 -0.5156,0 -1.0312,-0.094 -1.5468,-0.281 -0.5156,-0.211 -0.9844,-0.492 -1.4063,-0.844 -0.3984,-0.351 -0.7265,-0.762 -0.9843,-1.23 -0.2579,-0.492 -0.3868,-1.02 -0.3868,-1.582 z m 15.2578,1.617 c 0,-0.328 0.0352,-0.61 0.1055,-0.844 0.0703,-0.258 0.1992,-0.586 0.3867,-0.984 0.1641,-0.235 0.4571,-0.68 0.8789,-1.336 0.4453,-0.656 0.9024,-1.348 1.3711,-2.074 0.4922,-0.727 0.9492,-1.407 1.3711,-2.039 0.4453,-0.657 0.75,-1.114 0.9141,-1.372 0.2109,-0.304 0.375,-0.468 0.4922,-0.492 0.1172,-0.023 0.3398,-0.035 0.6679,-0.035 0.211,0 0.4336,0.012 0.668,0.035 0.2578,0.024 0.4219,0.188 0.4922,0.492 -0.3281,0.797 -0.7734,1.559 -1.3359,2.286 -0.5391,0.703 -1.0782,1.406 -1.6172,2.109 -0.5156,0.703 -0.9727,1.43 -1.3711,2.18 -0.3985,0.726 -0.5977,1.511 -0.5977,2.355 0.0938,0 0.2344,0.012 0.4219,0.035 0.2109,0.024 0.4336,0.047 0.668,0.071 0.2343,0.023 0.4453,0.046 0.6328,0.07 0.2109,0.023 0.3633,0.023 0.457,0 0.1406,-0.024 0.375,-0.07 0.7031,-0.141 0.3516,-0.093 0.7149,-0.187 1.0899,-0.281 0.3984,-0.094 0.7734,-0.188 1.125,-0.281 0.3515,-0.094 0.5976,-0.164 0.7383,-0.211 0,0.047 0,0.129 0,0.246 0.0234,0.094 0.0351,0.164 0.0351,0.211 0,0.469 -0.2226,0.855 -0.6679,1.16 -0.4219,0.305 -0.9258,0.551 -1.5118,0.738 -0.5625,0.164 -1.1484,0.282 -1.7578,0.352 -0.5859,0.047 -1.043,0.07 -1.3711,0.07 -0.3515,0 -0.7148,-0.035 -1.0898,-0.105 -0.3516,-0.094 -0.668,-0.235 -0.9492,-0.422 -0.2813,-0.188 -0.5157,-0.422 -0.7032,-0.703 -0.164,-0.305 -0.2461,-0.668 -0.2461,-1.09 z m 10.2305,-20.602 c 0.3047,0 0.5859,0.012 0.8438,0.035 0.2578,0.024 0.4804,0.082 0.6679,0.176 0.1875,0.094 0.3399,0.235 0.4571,0.422 0.1171,0.188 0.1757,0.445 0.1757,0.774 0,0.14 0,0.292 0,0.457 0,0.164 -0.0234,0.328 -0.0703,0.492 -0.0234,0.14 -0.082,0.269 -0.1757,0.386 -0.0938,0.094 -0.2461,0.141 -0.4571,0.141 -0.3281,0 -0.5976,-0.117 -0.8086,-0.351 -0.1875,-0.235 -0.3281,-0.504 -0.4219,-0.809 -0.0937,-0.328 -0.1523,-0.656 -0.1757,-0.984 -0.0235,-0.329 -0.0352,-0.575 -0.0352,-0.739 z M 82.082,281.59 c 0,-0.68 0.1289,-1.36 0.3868,-2.039 0.2578,-0.68 0.5624,-1.348 0.914,-2.004 0.3516,-0.68 0.7031,-1.348 1.0547,-2.004 0.375,-0.656 0.6563,-1.301 0.8437,-1.934 -0.4453,0.258 -0.832,0.411 -1.1601,0.457 -0.3047,0.024 -0.6797,0.036 -1.125,0.036 -0.0469,0 -0.1992,0 -0.457,0 -0.2344,-0.024 -0.3868,-0.036 -0.4571,-0.036 0.1407,-0.515 0.3985,-0.972 0.7735,-1.371 0.375,-0.422 0.7968,-0.773 1.2656,-1.054 0.4922,-0.305 0.9961,-0.551 1.5117,-0.739 0.5391,-0.211 1.0195,-0.375 1.4414,-0.492 0.7031,-1.101 1.2774,-2.203 1.7227,-3.305 0.4453,-1.125 0.8906,-2.214 1.3359,-3.269 0.4688,-1.078 1.0078,-2.098 1.6172,-3.059 0.6328,-0.984 1.4766,-1.886 2.5312,-2.707 l 0.1758,1.336 -4.3945,10.301 c 0.2578,-0.07 0.5742,-0.141 0.9492,-0.211 0.375,-0.07 0.75,-0.141 1.125,-0.211 0.3985,-0.07 0.7735,-0.129 1.125,-0.176 0.375,-0.07 0.6914,-0.14 0.9492,-0.211 0.0235,0 0.0938,0 0.211,0 0.1172,-0.023 0.2109,-0.035 0.2812,-0.035 0.3281,0 0.5977,0.059 0.8086,0.176 0.211,0.117 0.3867,0.375 0.5274,0.773 -1.5938,0.469 -3.0352,0.961 -4.3243,1.477 -1.289,0.516 -2.414,1.195 -3.375,2.039 -0.9375,0.82 -1.7109,1.875 -2.3203,3.164 -0.5859,1.266 -0.9961,2.895 -1.2304,4.887 0,0.422 0.0234,0.809 0.0703,1.16 0.0468,0.352 0.3398,0.563 0.8789,0.633 0.539,0 1.0429,-0.106 1.5117,-0.317 0.4688,-0.21 0.9258,-0.433 1.3711,-0.667 0.4453,-0.258 0.8906,-0.493 1.3359,-0.704 0.4688,-0.211 0.9727,-0.316 1.5118,-0.316 0,0.562 -0.2461,1.078 -0.7383,1.547 -0.4922,0.469 -1.0899,0.879 -1.793,1.23 -0.6797,0.352 -1.3828,0.621 -2.1094,0.809 -0.7265,0.187 -1.3242,0.281 -1.7929,0.281 -0.4688,0 -0.8907,-0.094 -1.2657,-0.281 -0.375,-0.188 -0.6914,-0.434 -0.9492,-0.738 -0.2344,-0.328 -0.4219,-0.704 -0.5625,-1.125 -0.1172,-0.422 -0.1758,-0.856 -0.1758,-1.301 z m 7.1719,14.027 c 0.75,-1.219 1.6172,-2.308 2.6016,-3.269 0.9843,-0.938 1.9922,-1.828 3.0234,-2.672 1.0547,-0.844 2.0977,-1.664 3.1289,-2.461 1.0313,-0.797 1.9805,-1.653 2.8472,-2.567 0.891,-0.914 1.653,-1.921 2.286,-3.023 0.632,-1.125 1.066,-2.426 1.3,-3.902 0,-0.047 -0.011,-0.118 -0.035,-0.211 0,-0.117 0,-0.2 0,-0.246 -0.539,0.632 -1.195,1.347 -1.968,2.144 -0.75,0.797 -1.571,1.547 -2.4614,2.25 -0.8672,0.703 -1.7813,1.289 -2.7422,1.758 -0.961,0.469 -1.8985,0.703 -2.8125,0.703 -0.2344,0 -0.5391,-0.012 -0.9141,-0.035 -0.3516,-0.047 -0.7031,-0.129 -1.0547,-0.246 -0.3515,-0.117 -0.6562,-0.281 -0.914,-0.492 -0.2579,-0.211 -0.3868,-0.493 -0.3868,-0.844 0,-0.305 0.0821,-0.774 0.2461,-1.406 0.1641,-0.633 0.3868,-1.336 0.668,-2.11 0.2813,-0.773 0.5977,-1.558 0.9492,-2.355 0.3516,-0.797 0.7266,-1.524 1.125,-2.18 0.3985,-0.656 0.7852,-1.195 1.1602,-1.617 0.3984,-0.422 0.7617,-0.633 1.0898,-0.633 0.3282,0 0.6094,0.07 0.8438,0.211 0.2344,0.141 0.3515,0.375 0.3515,0.703 0,0.586 -0.2109,1.172 -0.6328,1.758 -0.4219,0.586 -0.8789,1.219 -1.3711,1.898 -0.4922,0.657 -0.9492,1.372 -1.3711,2.145 -0.4218,0.773 -0.6328,1.652 -0.6328,2.637 1.5469,0 2.9414,-0.317 4.1836,-0.95 1.2422,-0.656 2.3673,-1.464 3.3753,-2.425 1.008,-0.961 1.898,-2.004 2.672,-3.129 0.773,-1.125 1.453,-2.168 2.039,-3.129 0.609,-0.961 1.125,-1.758 1.547,-2.391 0.445,-0.656 0.82,-0.984 1.125,-0.984 0.445,0 0.703,0.141 0.773,0.422 0.094,0.258 0.141,0.586 0.141,0.984 -0.211,0.727 -0.504,1.582 -0.879,2.567 -0.375,0.96 -0.762,1.98 -1.16,3.058 -0.375,1.055 -0.727,2.11 -1.055,3.164 -0.305,1.055 -0.504,2.016 -0.598,2.883 0,0.023 0,0.059 0,0.105 0.024,0.047 0.035,0.082 0.035,0.106 0.422,-0.141 0.821,-0.387 1.196,-0.738 0.375,-0.352 0.738,-0.703 1.089,-1.055 0.376,-0.375 0.75,-0.703 1.126,-0.984 0.374,-0.305 0.761,-0.457 1.16,-0.457 0.023,0 0.105,0.164 0.246,0.492 0.164,0.328 0.164,0.726 0,1.195 -0.211,0.164 -0.598,0.445 -1.16,0.844 -0.539,0.398 -1.114,0.82 -1.723,1.265 -0.609,0.422 -1.184,0.844 -1.723,1.266 -0.539,0.398 -0.914,0.703 -1.125,0.914 -0.328,0.328 -0.668,0.797 -1.019,1.406 -0.352,0.61 -0.703,1.289 -1.055,2.039 -0.351,0.774 -0.703,1.582 -1.055,2.426 -0.328,0.844 -0.656,1.664 -0.984,2.461 -0.328,0.82 -0.656,1.57 -0.9844,2.25 -0.3047,0.703 -0.5859,1.278 -0.8437,1.723 -0.1172,0.187 -0.3633,0.551 -0.7383,1.09 -0.3516,0.562 -0.75,1.16 -1.1953,1.793 -0.4219,0.632 -0.8438,1.23 -1.2656,1.793 -0.3985,0.586 -0.7032,0.996 -0.9141,1.23 -0.0938,0.117 -0.3516,0.387 -0.7734,0.809 -0.4219,0.445 -0.9024,0.925 -1.4414,1.441 -0.5157,0.539 -1.0313,1.066 -1.5469,1.582 -0.5391,0.516 -0.9492,0.902 -1.2305,1.16 -0.2812,0.164 -0.6562,0.364 -1.125,0.598 -0.4687,0.258 -0.9492,0.469 -1.4414,0.633 -0.5156,0.164 -1.0078,0.269 -1.4766,0.316 -0.4922,0.047 -0.8906,-0.058 -1.1953,-0.316 -0.3047,-0.235 -0.4804,-0.645 -0.5273,-1.231 -0.0703,-0.562 0.0586,-1.371 0.3867,-2.426 0.3047,-1.031 0.8437,-2.343 1.6172,-3.937 0.7734,-1.594 1.8398,-3.527 3.1992,-5.801 z m 11.0391,-7.558 c -0.047,0 -0.129,0.011 -0.246,0.035 -0.0939,0.047 -0.1642,0.082 -0.2111,0.105 -0.0468,0.047 -0.1523,0.129 -0.3164,0.246 -0.164,0.117 -0.3515,0.246 -0.5625,0.387 -0.1875,0.141 -0.375,0.281 -0.5625,0.422 -0.164,0.141 -0.2812,0.246 -0.3515,0.316 -0.6563,0.469 -1.4063,1.125 -2.25,1.969 -0.8438,0.867 -1.7227,1.816 -2.6368,2.848 -0.8906,1.054 -1.7695,2.156 -2.6367,3.304 -0.8672,1.172 -1.6406,2.286 -2.3203,3.34 -0.7031,1.078 -1.2656,2.063 -1.6875,2.953 -0.4219,0.891 -0.6445,1.606 -0.6679,2.145 -0.0235,0.539 0.1992,0.855 0.6679,0.949 0.4688,0.094 1.2656,-0.129 2.3906,-0.668 0.2344,-0.211 0.5743,-0.527 1.0196,-0.949 0.4219,-0.399 0.8437,-0.82 1.2656,-1.266 0.4453,-0.422 0.8437,-0.82 1.1953,-1.195 0.3516,-0.352 0.5625,-0.574 0.6328,-0.668 0.1172,-0.164 0.3047,-0.422 0.5625,-0.773 0.2578,-0.352 0.5391,-0.75 0.8438,-1.196 0.3047,-0.445 0.6211,-0.914 0.9492,-1.406 0.3281,-0.492 0.6328,-0.973 0.9141,-1.441 0.3046,-0.446 0.5625,-0.844 0.7734,-1.196 0.2344,-0.351 0.3984,-0.621 0.4922,-0.808 0.2109,-0.375 0.4687,-0.914 0.7734,-1.617 0.3281,-0.68 0.6328,-1.395 0.9141,-2.145 0.2812,-0.727 0.5273,-1.43 0.7383,-2.109 0.2114,-0.68 0.3164,-1.207 0.3164,-1.582 z m 9.809,-10.829 c 0,-0.375 0.023,-0.785 0.07,-1.23 0.047,-0.469 0.152,-0.891 0.316,-1.266 0.164,-0.375 0.399,-0.691 0.703,-0.949 0.329,-0.258 0.762,-0.387 1.301,-0.387 0,0.305 -0.035,0.586 -0.105,0.844 -0.047,0.258 -0.117,0.516 -0.211,0.774 -0.071,0.257 -0.141,0.539 -0.211,0.843 -0.047,0.282 -0.07,0.598 -0.07,0.95 0,0.89 0.117,1.722 0.351,2.496 0.234,0.773 0.586,1.453 1.055,2.039 0.492,0.562 1.09,1.008 1.793,1.336 0.726,0.328 1.582,0.492 2.566,0.492 0.422,0 0.938,-0.094 1.547,-0.281 0.609,-0.188 1.219,-0.411 1.828,-0.668 0.61,-0.258 1.172,-0.516 1.688,-0.774 0.515,-0.258 0.879,-0.445 1.089,-0.562 0.516,-0.282 0.926,-0.668 1.231,-1.16 0.305,-0.516 0.539,-1.067 0.703,-1.653 0.164,-0.609 0.27,-1.219 0.316,-1.828 0.047,-0.633 0.071,-1.195 0.071,-1.687 0,-0.797 -0.082,-1.571 -0.246,-2.321 -0.141,-0.773 -0.305,-1.535 -0.492,-2.285 -0.165,-0.75 -0.329,-1.5 -0.493,-2.25 -0.14,-0.75 -0.211,-1.512 -0.211,-2.285 0.258,-0.727 0.657,-1.383 1.196,-1.969 0.562,-0.609 1.195,-1.125 1.898,-1.547 0.727,-0.445 1.5,-0.797 2.32,-1.054 0.821,-0.258 1.618,-0.41 2.391,-0.457 0.633,0.164 1.113,0.375 1.442,0.632 0.328,0.235 0.55,0.493 0.667,0.774 0.141,0.281 0.176,0.551 0.106,0.808 -0.07,0.258 -0.188,0.493 -0.352,0.704 -0.257,-0.563 -0.597,-0.938 -1.019,-1.125 -0.399,-0.188 -0.856,-0.246 -1.371,-0.176 -0.492,0.07 -0.996,0.246 -1.512,0.527 -0.516,0.281 -1.008,0.598 -1.477,0.949 -0.468,0.352 -0.878,0.727 -1.23,1.125 -0.352,0.375 -0.609,0.703 -0.773,0.985 0,0.703 0.07,1.394 0.211,2.074 0.164,0.656 0.328,1.324 0.492,2.004 0.187,0.656 0.351,1.324 0.492,2.004 0.164,0.656 0.246,1.336 0.246,2.039 0,1.687 -0.27,3.234 -0.809,4.64 -0.515,1.383 -1.277,2.579 -2.285,3.586 -0.984,0.985 -2.191,1.747 -3.621,2.286 -1.406,0.539 -2.988,0.808 -4.746,0.808 -1.102,0 -2.086,-0.223 -2.953,-0.668 -0.844,-0.445 -1.559,-1.031 -2.145,-1.758 -0.562,-0.75 -0.996,-1.593 -1.3,-2.531 -0.305,-0.937 -0.457,-1.887 -0.457,-2.848 z m 29.425,-4.957 c -0.539,0.071 -1.16,0.411 -1.863,1.02 -0.703,0.586 -1.383,1.312 -2.039,2.18 -0.633,0.843 -1.172,1.769 -1.617,2.777 -0.446,0.984 -0.668,1.898 -0.668,2.742 0,0.68 0.176,1.16 0.527,1.442 0.352,0.257 0.856,0.386 1.512,0.386 0.703,0 1.383,-0.082 2.039,-0.246 0.68,-0.187 1.348,-0.375 2.004,-0.562 0.68,-0.211 1.348,-0.399 2.004,-0.563 0.679,-0.187 1.371,-0.281 2.074,-0.281 0,0.328 -0.047,0.609 -0.141,0.844 -0.093,0.211 -0.234,0.445 -0.421,0.703 -1.219,0.586 -2.473,1.125 -3.762,1.617 -1.289,0.469 -2.637,0.703 -4.043,0.703 -0.422,0 -0.867,-0.07 -1.336,-0.211 -0.469,-0.164 -0.902,-0.386 -1.301,-0.668 -0.398,-0.281 -0.738,-0.621 -1.019,-1.019 -0.258,-0.399 -0.387,-0.844 -0.387,-1.336 0,-1.055 0.152,-2.074 0.457,-3.059 0.305,-1.008 0.726,-1.957 1.265,-2.847 0.54,-0.891 1.184,-1.711 1.934,-2.461 0.774,-0.75 1.606,-1.407 2.496,-1.969 v -0.035 c 0.352,-0.211 0.75,-0.41 1.196,-0.598 0.468,-0.211 0.902,-0.328 1.3,-0.352 0.399,-0.046 0.727,0.047 0.985,0.282 0.281,0.211 0.422,0.621 0.422,1.23 0,0.281 -0.024,0.656 -0.071,1.125 -0.047,0.445 -0.176,0.762 -0.386,0.949 -0.188,0.118 -0.434,0.223 -0.739,0.317 -0.14,0.047 -0.281,0.082 -0.422,0.105 z m 3.973,10.442 c 0.211,-1.336 0.609,-2.567 1.195,-3.692 0.586,-1.125 1.254,-2.097 2.004,-2.918 0.774,-0.843 1.606,-1.535 2.496,-2.074 0.891,-0.539 1.758,-0.879 2.602,-1.019 0.844,-0.164 1.617,-0.129 2.32,0.105 0.727,0.235 1.313,0.703 1.758,1.406 0,0.539 -0.129,1.055 -0.387,1.547 -0.234,0.492 -0.504,0.985 -0.808,1.477 -0.282,0.492 -0.551,0.996 -0.809,1.512 -0.234,0.515 -0.351,1.066 -0.351,1.652 0,0.609 0.128,1.101 0.386,1.477 0.282,0.351 0.762,0.527 1.442,0.527 0.562,0 1.101,-0.082 1.617,-0.246 0.539,-0.164 1.078,-0.246 1.617,-0.246 0.094,0 0.246,0.011 0.457,0.035 0.234,0 0.387,0 0.457,0 -0.281,0.398 -0.644,0.738 -1.09,1.019 -0.445,0.282 -0.914,0.528 -1.406,0.739 -0.492,0.187 -1.008,0.328 -1.547,0.422 -0.515,0.093 -0.996,0.14 -1.441,0.14 -0.422,0 -0.797,-0.094 -1.125,-0.281 -0.328,-0.188 -0.61,-0.434 -0.844,-0.738 -0.234,-0.305 -0.422,-0.645 -0.563,-1.02 -0.117,-0.398 -0.175,-0.785 -0.175,-1.16 -0.352,0.398 -0.739,0.82 -1.16,1.266 -0.399,0.421 -0.833,0.808 -1.301,1.16 -0.446,0.351 -0.938,0.644 -1.477,0.879 -0.515,0.234 -1.055,0.351 -1.617,0.351 -0.609,0 -1.137,-0.223 -1.582,-0.668 -0.445,-0.469 -0.668,-1.019 -0.668,-1.652 z m 2.32,-1.09 c 0,0.187 0,0.398 0,0.633 0.024,0.234 0.176,0.387 0.457,0.457 0.586,-0.141 1.254,-0.445 2.004,-0.914 0.75,-0.492 1.453,-1.055 2.11,-1.688 0.656,-0.656 1.207,-1.347 1.652,-2.074 0.445,-0.75 0.668,-1.465 0.668,-2.144 0,-0.047 -0.012,-0.118 -0.035,-0.211 0,-0.118 0,-0.2 0,-0.246 -0.797,0 -1.606,0.164 -2.426,0.492 -0.82,0.328 -1.559,0.785 -2.215,1.371 -0.656,0.562 -1.195,1.219 -1.617,1.969 -0.398,0.75 -0.598,1.535 -0.598,2.355 z m 8.297,13.219 c 0,-0.024 0.012,-0.071 0.035,-0.141 0,-0.07 0,-0.117 0,-0.141 0.024,-0.07 0.059,-0.175 0.106,-0.316 0.047,-0.117 0.094,-0.246 0.14,-0.387 0.047,-0.14 0.094,-0.281 0.141,-0.421 0.047,-0.118 0.082,-0.2 0.106,-0.247 0.14,-0.328 0.375,-0.855 0.703,-1.582 0.328,-0.703 0.703,-1.511 1.125,-2.425 0.422,-0.891 0.867,-1.829 1.336,-2.813 0.445,-0.984 0.879,-1.922 1.3,-2.812 0.422,-0.914 0.797,-1.723 1.125,-2.426 0.352,-0.727 0.61,-1.266 0.774,-1.617 0.304,-0.493 0.726,-1.067 1.265,-1.723 0.563,-0.656 1.184,-1.324 1.864,-2.004 0.679,-0.68 1.406,-1.336 2.179,-1.969 0.797,-0.656 1.571,-1.23 2.321,-1.722 0.773,-0.516 1.523,-0.926 2.25,-1.231 0.726,-0.328 1.371,-0.492 1.933,-0.492 0.844,0 1.442,0.152 1.793,0.457 0.352,0.305 0.528,0.926 0.528,1.863 0,1.008 -0.2,2.016 -0.598,3.024 -0.375,0.984 -0.891,1.922 -1.547,2.812 -0.656,0.891 -1.43,1.699 -2.32,2.426 -0.867,0.727 -1.793,1.324 -2.778,1.793 -0.96,0.469 -1.957,0.797 -2.988,0.984 -1.031,0.164 -2.027,0.129 -2.988,-0.105 l -0.457,0.457 -4.57,11.391 c -0.071,0.211 -0.27,0.339 -0.598,0.386 -0.328,0.071 -0.598,0.106 -0.809,0.106 -0.304,0 -0.609,-0.106 -0.914,-0.317 -0.304,-0.187 -0.457,-0.457 -0.457,-0.808 z m 16.453,-17.121 c 1.102,-1.172 1.817,-2.098 2.145,-2.778 0.328,-0.703 0.398,-1.195 0.211,-1.476 -0.188,-0.281 -0.563,-0.387 -1.125,-0.317 -0.563,0.071 -1.196,0.27 -1.899,0.598 -0.703,0.328 -1.418,0.762 -2.144,1.301 -0.703,0.539 -1.289,1.125 -1.758,1.758 -0.211,0.234 -0.469,0.55 -0.773,0.949 -0.305,0.375 -0.61,0.762 -0.915,1.16 -0.281,0.375 -0.527,0.715 -0.738,1.02 -0.211,0.304 -0.316,0.48 -0.316,0.527 v 0.738 c 1.617,0 3,-0.234 4.148,-0.703 1.149,-0.492 2.203,-1.418 3.164,-2.777 z m 6.047,5.449 c -0.398,-0.891 -0.574,-1.758 -0.527,-2.602 0.047,-0.867 0.234,-1.675 0.562,-2.425 0.352,-0.774 0.797,-1.465 1.336,-2.075 0.563,-0.632 1.16,-1.172 1.793,-1.617 0.633,-0.469 1.266,-0.82 1.899,-1.055 0.656,-0.234 1.23,-0.328 1.722,-0.281 0.493,0.024 0.879,0.199 1.16,0.528 0.282,0.328 0.376,0.832 0.282,1.511 0,0.914 -0.293,1.711 -0.879,2.391 -0.563,0.68 -1.195,1.289 -1.899,1.828 -0.679,0.539 -1.312,1.031 -1.898,1.477 -0.563,0.421 -0.844,0.82 -0.844,1.195 0,0.211 0.117,0.375 0.352,0.492 0.258,0.117 0.551,0.211 0.879,0.281 0.328,0.047 0.656,0.082 0.984,0.106 0.328,0.023 0.563,0.047 0.703,0.07 2.203,-0.469 3.856,-0.75 4.957,-0.844 1.102,-0.117 1.793,-0.105 2.074,0.036 0.282,0.117 0.223,0.316 -0.175,0.597 -0.375,0.258 -0.961,0.539 -1.758,0.844 -0.797,0.281 -1.723,0.539 -2.778,0.773 -1.054,0.235 -2.097,0.375 -3.128,0.422 -1.032,0.024 -1.993,-0.082 -2.883,-0.316 -0.867,-0.235 -1.512,-0.68 -1.934,-1.336 z m 6.153,-8.016 c -0.469,0 -0.915,0.129 -1.336,0.387 -0.422,0.258 -0.809,0.586 -1.161,0.984 -0.328,0.375 -0.609,0.797 -0.843,1.266 -0.235,0.445 -0.41,0.867 -0.528,1.266 0.047,0.023 0.082,0.035 0.106,0.035 h 0.105 c 0.328,0 0.703,-0.141 1.125,-0.422 0.422,-0.281 0.821,-0.621 1.196,-1.02 0.375,-0.422 0.691,-0.855 0.949,-1.3 0.258,-0.446 0.387,-0.844 0.387,-1.196 z"
       fill="#ffffff"
       id="path28" />
  </mask>
  <path
     d="m 43.457,77.097799 c 0.1641,-1.36 0.4571,-2.649 0.8789,-3.868 0.4219,-1.242 0.9375,-2.437 1.5469,-3.585 0.6094,-1.172 1.2891,-2.321 2.0391,-3.446 0.75,-1.125 1.5469,-2.261 2.3906,-3.41 0.4922,-0.633 1.0313,-1.277 1.6172,-1.934 0.5859,-0.656 1.2187,-1.253 1.8984,-1.793 0.6797,-0.539 1.4063,-0.972 2.1797,-1.3 0.7969,-0.352 1.6289,-0.528 2.4961,-0.528 0.4688,0 0.832,0.036 1.0899,0.106 0.2578,0.047 0.4453,0.164 0.5624,0.351 0.1407,0.164 0.2227,0.411 0.2461,0.739 0.0235,0.328 0.0235,0.75 0,1.265 0,0.586 -0.1054,1.184 -0.3164,1.793 -0.2109,0.61 -0.5039,1.184 -0.8789,1.723 -0.375,0.539 -0.8203,1.019 -1.3359,1.441 -0.5156,0.399 -1.0664,0.692 -1.6523,0.879 v -0.492 c 0,-0.492 0.1054,-0.961 0.3164,-1.406 0.2343,-0.445 0.4921,-0.891 0.7734,-1.336 0.2812,-0.469 0.5273,-0.949 0.7383,-1.442 0.2343,-0.492 0.3515,-1.019 0.3515,-1.582 -0.2578,0 -0.4804,-0.011 -0.6679,-0.035 -0.1875,-0.047 -0.3633,-0.07 -0.5274,-0.07 -0.1406,-0.023 -0.2929,0 -0.457,0.07 -0.1406,0.047 -0.3164,0.164 -0.5273,0.352 -1.1485,0.937 -2.3321,2.039 -3.5508,3.305 -1.1953,1.242 -2.2852,2.589 -3.2696,4.043 -0.9843,1.453 -1.7929,2.976 -2.4257,4.57 -0.6094,1.57 -0.9141,3.152 -0.9141,4.746 0,0.07 0,0.187 0,0.351 0.0234,0.165 0.0352,0.329 0.0352,0.493 0.0234,0.164 0.0468,0.316 0.0703,0.457 0.0234,0.14 0.0351,0.222 0.0351,0.246 0.2578,0.258 0.5625,0.41 0.9141,0.457 0.375,0.047 0.6562,0.07 0.8437,0.07 1.0078,0 1.9453,-0.176 2.8125,-0.527 0.8907,-0.352 1.7578,-0.727 2.6016,-1.125 0.8437,-0.422 1.6875,-0.809 2.5312,-1.16 0.8672,-0.352 1.7813,-0.528 2.7422,-0.528 0,0.375 -0.2226,0.797 -0.6679,1.266 -0.4219,0.445 -0.9844,0.891 -1.6875,1.336 -0.6797,0.445 -1.4414,0.879 -2.2852,1.301 -0.8437,0.398 -1.6758,0.761 -2.4961,1.089 -0.7969,0.329 -1.5351,0.586 -2.2148,0.774 -0.6563,0.187 -1.1602,0.281 -1.5118,0.281 -0.5156,0 -1.0312,-0.094 -1.5468,-0.281 -0.5156,-0.211 -0.9844,-0.492 -1.4063,-0.844 -0.3984,-0.351 -0.7265,-0.762 -0.9843,-1.23 -0.2579,-0.492 -0.3868,-1.02 -0.3868,-1.582 z m 15.2578,1.617 c 0,-0.328 0.0352,-0.61 0.1055,-0.844 0.0703,-0.258 0.1992,-0.586 0.3867,-0.984 0.1641,-0.235 0.4571,-0.68 0.8789,-1.336 0.4453,-0.656 0.9024,-1.348 1.3711,-2.074 0.4922,-0.727 0.9492,-1.407 1.3711,-2.039 0.4453,-0.657 0.75,-1.114 0.9141,-1.372 0.2109,-0.304 0.375,-0.468 0.4922,-0.492 0.1172,-0.023 0.3398,-0.035 0.6679,-0.035 0.211,0 0.4336,0.012 0.668,0.035 0.2578,0.024 0.4219,0.188 0.4922,0.492 -0.3281,0.797 -0.7734,1.559 -1.3359,2.286 -0.5391,0.703 -1.0782,1.406 -1.6172,2.109 -0.5156,0.703 -0.9727,1.43 -1.3711,2.18 -0.3985,0.726 -0.5977,1.511 -0.5977,2.355 0.0938,0 0.2344,0.012 0.4219,0.035 0.2109,0.024 0.4336,0.047 0.668,0.071 0.2343,0.023 0.4453,0.046 0.6328,0.07 0.2109,0.023 0.3633,0.023 0.457,0 0.1406,-0.024 0.375,-0.07 0.7031,-0.141 0.3516,-0.093 0.7149,-0.187 1.0899,-0.281 0.3984,-0.094 0.7734,-0.188 1.125,-0.281 0.3515,-0.094 0.5976,-0.164 0.7383,-0.211 0,0.047 0,0.129 0,0.246 0.0234,0.094 0.0351,0.164 0.0351,0.211 0,0.469 -0.2226,0.855 -0.6679,1.16 -0.4219,0.305 -0.9258,0.551 -1.5118,0.738 -0.5625,0.164 -1.1484,0.282 -1.7578,0.352 -0.5859,0.047 -1.043,0.07 -1.3711,0.07 -0.3515,0 -0.7148,-0.035 -1.0898,-0.105 -0.3516,-0.094 -0.668,-0.235 -0.9492,-0.422 -0.2813,-0.188 -0.5157,-0.422 -0.7032,-0.703 -0.164,-0.305 -0.2461,-0.668 -0.2461,-1.09 z m 10.2305,-20.602 c 0.3047,0 0.5859,0.012 0.8438,0.035 0.2578,0.024 0.4804,0.082 0.6679,0.176 0.1875,0.094 0.3399,0.235 0.4571,0.422 0.1171,0.188 0.1757,0.445 0.1757,0.774 0,0.14 0,0.292 0,0.457 0,0.164 -0.0234,0.328 -0.0703,0.492 -0.0234,0.14 -0.082,0.269 -0.1757,0.386 -0.0938,0.094 -0.2461,0.141 -0.4571,0.141 -0.3281,0 -0.5976,-0.117 -0.8086,-0.351 -0.1875,-0.235 -0.3281,-0.504 -0.4219,-0.809 -0.0937,-0.328 -0.1523,-0.656 -0.1757,-0.984 -0.0235,-0.329 -0.0352,-0.575 -0.0352,-0.739 z m -1.8633,19.477 c 0,-0.68 0.1289,-1.36 0.3868,-2.039 0.2578,-0.68 0.5624,-1.348 0.914,-2.004 0.3516,-0.68 0.7031,-1.348 1.0547,-2.004 0.375,-0.656 0.6563,-1.301 0.8437,-1.934 -0.4453,0.258 -0.832,0.411 -1.1601,0.457 -0.3047,0.024 -0.6797,0.036 -1.125,0.036 -0.0469,0 -0.1992,0 -0.457,0 -0.2344,-0.024 -0.3868,-0.036 -0.4571,-0.036 0.1407,-0.515 0.3985,-0.972 0.7735,-1.371 0.375,-0.422 0.7968,-0.773 1.2656,-1.054 0.4922,-0.305 0.9961,-0.551 1.5117,-0.739 0.5391,-0.211 1.0195,-0.375 1.4414,-0.492 0.7031,-1.101 1.2774,-2.203 1.7227,-3.305 0.4453,-1.125 0.8906,-2.214 1.3359,-3.269 0.4688,-1.078 1.0078,-2.098 1.6172,-3.059 0.6328,-0.984 1.4766,-1.886 2.5312,-2.707 l 0.1758,1.336 -4.3945,10.301 c 0.2578,-0.07 0.5742,-0.141 0.9492,-0.211 0.375,-0.07 0.75,-0.141 1.125,-0.211 0.3985,-0.07 0.7735,-0.129 1.125,-0.176 0.375,-0.07 0.6914,-0.14 0.9492,-0.211 0.0235,0 0.0938,0 0.211,0 0.1172,-0.023 0.2109,-0.035 0.2812,-0.035 0.3281,0 0.5977,0.059 0.8086,0.176 0.211,0.117 0.3867,0.375 0.5274,0.773 -1.5938,0.469 -3.0352,0.961 -4.3243,1.477 -1.289,0.516 -2.414,1.195 -3.375,2.039 -0.9375,0.82 -1.7109,1.875 -2.3203,3.164 -0.5859,1.266 -0.9961,2.895 -1.2304,4.887 0,0.422 0.0234,0.809 0.0703,1.16 0.0468,0.352 0.3398,0.563 0.8789,0.633 0.539,0 1.0429,-0.106 1.5117,-0.317 0.4688,-0.21 0.9258,-0.433 1.3711,-0.667 0.4453,-0.258 0.8906,-0.493 1.3359,-0.704 0.4688,-0.211 0.9727,-0.316 1.5118,-0.316 0,0.562 -0.2461,1.078 -0.7383,1.547 -0.4922,0.469 -1.0899,0.879 -1.793,1.23 -0.6797,0.352 -1.3828,0.621 -2.1094,0.809 -0.7265,0.187 -1.3242,0.281 -1.7929,0.281 -0.4688,0 -0.8907,-0.094 -1.2657,-0.281 -0.375,-0.188 -0.6914,-0.434 -0.9492,-0.738 -0.2344,-0.328 -0.4219,-0.704 -0.5625,-1.125 -0.1172,-0.422 -0.1758,-0.856 -0.1758,-1.301 z m 7.1719,14.027 c 0.75,-1.219 1.6172,-2.308 2.6016,-3.269 0.9843,-0.938 1.9922,-1.828 3.0234,-2.672 1.0547,-0.844 2.0977,-1.664 3.1289,-2.461 1.0313,-0.797 1.9805,-1.653 2.8472,-2.567 0.891,-0.914 1.653,-1.921 2.286,-3.023 0.632,-1.125 1.066,-2.426 1.3,-3.902 0,-0.047 -0.011,-0.118 -0.035,-0.211 0,-0.117 0,-0.2 0,-0.246 -0.539,0.632 -1.195,1.347 -1.968,2.144 -0.75,0.797 -1.571,1.547 -2.4614,2.25 -0.8672,0.703 -1.7813,1.289 -2.7422,1.758 -0.961,0.469 -1.8985,0.703 -2.8125,0.703 -0.2344,0 -0.5391,-0.012 -0.9141,-0.035 -0.3516,-0.047 -0.7031,-0.129 -1.0547,-0.246 -0.3515,-0.117 -0.6562,-0.281 -0.914,-0.492 -0.2579,-0.211 -0.3868,-0.493 -0.3868,-0.844 0,-0.305 0.0821,-0.774 0.2461,-1.406 0.1641,-0.633 0.3868,-1.336 0.668,-2.11 0.2813,-0.773 0.5977,-1.558 0.9492,-2.355 0.3516,-0.797 0.7266,-1.524 1.125,-2.18 0.3985,-0.656 0.7852,-1.195 1.1602,-1.617 0.3984,-0.422 0.7617,-0.633 1.0898,-0.633 0.3282,0 0.6094,0.07 0.8438,0.211 0.2344,0.141 0.3515,0.375 0.3515,0.703 0,0.586 -0.2109,1.172 -0.6328,1.758 -0.4219,0.586 -0.8789,1.219 -1.3711,1.898 -0.4922,0.657 -0.9492,1.372 -1.3711,2.145 -0.4218,0.773 -0.6328,1.652 -0.6328,2.637 1.5469,0 2.9414,-0.317 4.1836,-0.95 1.2422,-0.656 2.3673,-1.464 3.3753,-2.425 1.008,-0.961 1.898,-2.004 2.672,-3.129 0.773,-1.125 1.453,-2.168 2.039,-3.129 0.609,-0.961 1.125,-1.758 1.547,-2.391 0.445,-0.656 0.82,-0.984 1.125,-0.984 0.445,0 0.703,0.141 0.773,0.422 0.094,0.258 0.141,0.586 0.141,0.984 -0.211,0.727 -0.504,1.582 -0.879,2.567 -0.375,0.96 -0.762,1.98 -1.16,3.058 -0.375,1.055 -0.727,2.11 -1.055,3.164 -0.305,1.055 -0.504,2.016 -0.598,2.883 0,0.023 0,0.059 0,0.105 0.024,0.047 0.035,0.082 0.035,0.106 0.422,-0.141 0.821,-0.387 1.196,-0.738 0.375,-0.352 0.738,-0.703 1.089,-1.055 0.376,-0.375 0.75,-0.703 1.126,-0.984 0.374,-0.305 0.761,-0.457 1.16,-0.457 0.023,0 0.105,0.164 0.246,0.492 0.164,0.328 0.164,0.726 0,1.195 -0.211,0.164 -0.598,0.445 -1.16,0.844 -0.539,0.398 -1.114,0.82 -1.723,1.265 -0.609,0.422 -1.184,0.844 -1.723,1.266 -0.539,0.398 -0.914,0.703 -1.125,0.914 -0.328,0.328 -0.668,0.797 -1.019,1.406 -0.352,0.61 -0.703,1.289 -1.055,2.039 -0.351,0.774 -0.703,1.582 -1.055,2.426 -0.328,0.844 -0.656,1.664 -0.984,2.461 -0.328,0.82 -0.656,1.57 -0.9844,2.25 -0.3047,0.703 -0.5859,1.278 -0.8437,1.723 -0.1172,0.187 -0.3633,0.551 -0.7383,1.09 -0.3516,0.562 -0.75,1.16 -1.1953,1.793 -0.4219,0.632 -0.8438,1.23 -1.2656,1.793 -0.3985,0.586 -0.7032,0.996 -0.9141,1.23 -0.0938,0.117 -0.3516,0.387 -0.7734,0.809 -0.4219,0.445001 -0.9024,0.925001 -1.4414,1.441001 -0.5157,0.539 -1.0313,1.066 -1.5469,1.582 -0.5391,0.516 -0.9492,0.902 -1.2305,1.16 -0.2812,0.164 -0.6562,0.364 -1.125,0.598 -0.4687,0.258 -0.9492,0.469 -1.4414,0.633 -0.5156,0.164 -1.0078,0.269 -1.4766,0.316 -0.4922,0.047 -0.8906,-0.058 -1.1953,-0.316 -0.3047,-0.235 -0.4804,-0.645 -0.5273,-1.231 -0.0703,-0.562 0.0586,-1.371 0.3867,-2.426 0.3047,-1.031 0.8437,-2.343001 1.6172,-3.937001 0.7734,-1.594 1.8398,-3.527 3.1992,-5.801 z m 11.0391,-7.558 c -0.047,0 -0.129,0.011 -0.246,0.035 -0.0939,0.047 -0.1642,0.082 -0.2111,0.105 -0.0468,0.047 -0.1523,0.129 -0.3164,0.246 -0.164,0.117 -0.3515,0.246 -0.5625,0.387 -0.1875,0.141 -0.375,0.281 -0.5625,0.422 -0.164,0.141 -0.2812,0.246 -0.3515,0.316 -0.6563,0.469 -1.4063,1.125 -2.25,1.969 -0.8438,0.867 -1.7227,1.816 -2.6368,2.848 -0.8906,1.054 -1.7695,2.156 -2.6367,3.304 -0.8672,1.172 -1.6406,2.286 -2.3203,3.34 -0.7031,1.078 -1.2656,2.063 -1.6875,2.953 -0.4219,0.891001 -0.6445,1.606001 -0.6679,2.145001 -0.0235,0.539 0.1992,0.855 0.6679,0.949 0.4688,0.094 1.2656,-0.129 2.3906,-0.668 0.2344,-0.211 0.5743,-0.527 1.0196,-0.949 0.4219,-0.399 0.8437,-0.82 1.2656,-1.266 0.4453,-0.422001 0.8437,-0.820001 1.1953,-1.195001 0.3516,-0.352 0.5625,-0.574 0.6328,-0.668 0.1172,-0.164 0.3047,-0.422 0.5625,-0.773 0.2578,-0.352 0.5391,-0.75 0.8438,-1.196 0.3047,-0.445 0.6211,-0.914 0.9492,-1.406 0.3281,-0.492 0.6328,-0.973 0.9141,-1.441 0.3046,-0.446 0.5625,-0.844 0.7734,-1.196 0.2344,-0.351 0.3984,-0.621 0.4922,-0.808 0.2109,-0.375 0.4687,-0.914 0.7734,-1.617 0.3281,-0.68 0.6328,-1.395 0.9141,-2.145 0.2812,-0.727 0.5273,-1.43 0.7383,-2.109 0.2114,-0.68 0.3164,-1.207 0.3164,-1.582 z m 9.809,-10.829 c 0,-0.375 0.023,-0.785 0.07,-1.23 0.047,-0.469 0.152,-0.891 0.316,-1.266 0.164,-0.375 0.399,-0.691 0.703,-0.949 0.329,-0.258 0.762,-0.387 1.301,-0.387 0,0.305 -0.035,0.586 -0.105,0.844 -0.047,0.258 -0.117,0.516 -0.211,0.774 -0.071,0.257 -0.141,0.539 -0.211,0.843 -0.047,0.282 -0.07,0.598 -0.07,0.95 0,0.89 0.117,1.722 0.351,2.496 0.234,0.773 0.586,1.453 1.055,2.039 0.492,0.562 1.09,1.008 1.793,1.336 0.726,0.328 1.582,0.492 2.566,0.492 0.422,0 0.938,-0.094 1.547,-0.281 0.609,-0.188 1.219,-0.411 1.828,-0.668 0.61,-0.258 1.172,-0.516 1.688,-0.774 0.515,-0.258 0.879,-0.445 1.089,-0.562 0.516,-0.282 0.926,-0.668 1.231,-1.16 0.305,-0.516 0.539,-1.067 0.703,-1.653 0.164,-0.609 0.27,-1.219 0.316,-1.828 0.047,-0.633 0.071,-1.195 0.071,-1.687 0,-0.797 -0.082,-1.571 -0.246,-2.321 -0.141,-0.773 -0.305,-1.535 -0.492,-2.285 -0.165,-0.75 -0.329,-1.5 -0.493,-2.25 -0.14,-0.75 -0.211,-1.512 -0.211,-2.285 0.258,-0.727 0.657,-1.383 1.196,-1.969 0.562,-0.609 1.195,-1.125 1.898,-1.547 0.727,-0.445 1.5,-0.797 2.32,-1.054 0.821,-0.258 1.618,-0.41 2.391,-0.457 0.633,0.164 1.113,0.375 1.442,0.632 0.328,0.235 0.55,0.493 0.667,0.774 0.141,0.281 0.176,0.551 0.106,0.808 -0.07,0.258 -0.188,0.493 -0.352,0.704 -0.257,-0.563 -0.597,-0.938 -1.019,-1.125 -0.399,-0.188 -0.856,-0.246 -1.371,-0.176 -0.492,0.07 -0.996,0.246 -1.512,0.527 -0.516,0.281 -1.008,0.598 -1.477,0.949 -0.468,0.352 -0.878,0.727 -1.23,1.125 -0.352,0.375 -0.609,0.703 -0.773,0.985 0,0.703 0.07,1.394 0.211,2.074 0.164,0.656 0.328,1.324 0.492,2.004 0.187,0.656 0.351,1.324 0.492,2.004 0.164,0.656 0.246,1.336 0.246,2.039 0,1.687 -0.27,3.234 -0.809,4.64 -0.515,1.383 -1.277,2.579 -2.285,3.586 -0.984,0.985 -2.191,1.747 -3.621,2.286 -1.406,0.539 -2.988,0.808 -4.746,0.808 -1.102,0 -2.086,-0.223 -2.953,-0.668 -0.844,-0.445 -1.559,-1.031 -2.145,-1.758 -0.562,-0.75 -0.996,-1.593 -1.3,-2.531 -0.305,-0.937 -0.457,-1.887 -0.457,-2.848 z m 29.425,-4.957 c -0.539,0.071 -1.16,0.411 -1.863,1.02 -0.703,0.586 -1.383,1.312 -2.039,2.18 -0.633,0.843 -1.172,1.769 -1.617,2.777 -0.446,0.984 -0.668,1.898 -0.668,2.742 0,0.68 0.176,1.16 0.527,1.442 0.352,0.257 0.856,0.386 1.512,0.386 0.703,0 1.383,-0.082 2.039,-0.246 0.68,-0.187 1.348,-0.375 2.004,-0.562 0.68,-0.211 1.348,-0.399 2.004,-0.563 0.679,-0.187 1.371,-0.281 2.074,-0.281 0,0.328 -0.047,0.609 -0.141,0.844 -0.093,0.211 -0.234,0.445 -0.421,0.703 -1.219,0.586 -2.473,1.125 -3.762,1.617 -1.289,0.469 -2.637,0.703 -4.043,0.703 -0.422,0 -0.867,-0.07 -1.336,-0.211 -0.469,-0.164 -0.902,-0.386 -1.301,-0.668 -0.398,-0.281 -0.738,-0.621 -1.019,-1.019 -0.258,-0.399 -0.387,-0.844 -0.387,-1.336 0,-1.055 0.152,-2.074 0.457,-3.059 0.305,-1.008 0.726,-1.957 1.265,-2.847 0.54,-0.891 1.184,-1.711 1.934,-2.461 0.774,-0.75 1.606,-1.407 2.496,-1.969 v -0.035 c 0.352,-0.211 0.75,-0.41 1.196,-0.598 0.468,-0.211 0.902,-0.328 1.3,-0.352 0.399,-0.046 0.727,0.047 0.985,0.282 0.281,0.211 0.422,0.621 0.422,1.23 0,0.281 -0.024,0.656 -0.071,1.125 -0.047,0.445 -0.176,0.762 -0.386,0.949 -0.188,0.118 -0.434,0.223 -0.739,0.317 -0.14,0.047 -0.281,0.082 -0.422,0.105 z m 3.973,10.442 c 0.211,-1.336 0.609,-2.567 1.195,-3.692 0.586,-1.125 1.254,-2.097 2.004,-2.918 0.774,-0.843 1.606,-1.535 2.496,-2.074 0.891,-0.539 1.758,-0.879 2.602,-1.019 0.844,-0.164 1.617,-0.129 2.32,0.105 0.727,0.235 1.313,0.703 1.758,1.406 0,0.539 -0.129,1.055 -0.387,1.547 -0.234,0.492 -0.504,0.985 -0.808,1.477 -0.282,0.492 -0.551,0.996 -0.809,1.512 -0.234,0.515 -0.351,1.066 -0.351,1.652 0,0.609 0.128,1.101 0.386,1.477 0.282,0.351 0.762,0.527 1.442,0.527 0.562,0 1.101,-0.082 1.617,-0.246 0.539,-0.164 1.078,-0.246 1.617,-0.246 0.094,0 0.246,0.011 0.457,0.035 0.234,0 0.387,0 0.457,0 -0.281,0.398 -0.644,0.738 -1.09,1.019 -0.445,0.282 -0.914,0.528 -1.406,0.739 -0.492,0.187 -1.008,0.328 -1.547,0.422 -0.515,0.093 -0.996,0.14 -1.441,0.14 -0.422,0 -0.797,-0.094 -1.125,-0.281 -0.328,-0.188 -0.61,-0.434 -0.844,-0.738 -0.234,-0.305 -0.422,-0.645 -0.563,-1.02 -0.117,-0.398 -0.175,-0.785 -0.175,-1.16 -0.352,0.398 -0.739,0.82 -1.16,1.266 -0.399,0.421 -0.833,0.808 -1.301,1.16 -0.446,0.351 -0.938,0.644 -1.477,0.879 -0.515,0.234 -1.055,0.351 -1.617,0.351 -0.609,0 -1.137,-0.223 -1.582,-0.668 -0.445,-0.469 -0.668,-1.019 -0.668,-1.652 z m 2.32,-1.09 c 0,0.187 0,0.398 0,0.633 0.024,0.234 0.176,0.387 0.457,0.457 0.586,-0.141 1.254,-0.445 2.004,-0.914 0.75,-0.492 1.453,-1.055 2.11,-1.688 0.656,-0.656 1.207,-1.347 1.652,-2.074 0.445,-0.75 0.668,-1.465 0.668,-2.144 0,-0.047 -0.012,-0.118 -0.035,-0.211 0,-0.118 0,-0.2 0,-0.246 -0.797,0 -1.606,0.164 -2.426,0.492 -0.82,0.328 -1.559,0.785 -2.215,1.371 -0.656,0.562 -1.195,1.219 -1.617,1.969 -0.398,0.75 -0.598,1.535 -0.598,2.355 z m 8.297,13.219 c 0,-0.024 0.012,-0.071 0.035,-0.141 0,-0.07 0,-0.117 0,-0.141 0.024,-0.07 0.059,-0.175 0.106,-0.316 0.047,-0.117 0.094,-0.246 0.14,-0.387 0.047,-0.14 0.094,-0.281 0.141,-0.421 0.047,-0.118 0.082,-0.2 0.106,-0.247 0.14,-0.328 0.375,-0.855 0.703,-1.582 0.328,-0.703 0.703,-1.511 1.125,-2.425 0.422,-0.891 0.867,-1.829 1.336,-2.813 0.445,-0.984 0.879,-1.922 1.3,-2.812 0.422,-0.914 0.797,-1.723 1.125,-2.426 0.352,-0.727 0.61,-1.266 0.774,-1.617 0.304,-0.493 0.726,-1.067 1.265,-1.723 0.563,-0.656 1.184,-1.324 1.864,-2.004 0.679,-0.68 1.406,-1.336 2.179,-1.969 0.797,-0.656 1.571,-1.23 2.321,-1.722 0.773,-0.516 1.523,-0.926 2.25,-1.231 0.726,-0.328 1.371,-0.492 1.933,-0.492 0.844,0 1.442,0.152 1.793,0.457 0.352,0.305 0.528,0.926 0.528,1.863 0,1.008 -0.2,2.016 -0.598,3.024 -0.375,0.984 -0.891,1.922 -1.547,2.812 -0.656,0.891 -1.43,1.699 -2.32,2.426 -0.867,0.727 -1.793,1.324 -2.778,1.793 -0.96,0.469 -1.957,0.797 -2.988,0.984 -1.031,0.164 -2.027,0.129 -2.988,-0.105 l -0.457,0.457 -4.57,11.391 c -0.071,0.211 -0.27,0.339 -0.598,0.386 -0.328,0.071 -0.598,0.106 -0.809,0.106 -0.304,0 -0.609,-0.106 -0.914,-0.317 -0.304,-0.187 -0.457,-0.457 -0.457,-0.808 z m 16.453,-17.121 c 1.102,-1.172 1.817,-2.098 2.145,-2.778 0.328,-0.703 0.398,-1.195 0.211,-1.476 -0.188,-0.281 -0.563,-0.387 -1.125,-0.317 -0.563,0.071 -1.196,0.27 -1.899,0.598 -0.703,0.328 -1.418,0.762 -2.144,1.301 -0.703,0.539 -1.289,1.125 -1.758,1.758 -0.211,0.234 -0.469,0.55 -0.773,0.949 -0.305,0.375 -0.61,0.762 -0.915,1.16 -0.281,0.375 -0.527,0.715 -0.738,1.02 -0.211,0.304 -0.316,0.48 -0.316,0.527 v 0.738 c 1.617,0 3,-0.234 4.148,-0.703 1.149,-0.492 2.203,-1.418 3.164,-2.777 z m 6.047,5.449 c -0.398,-0.891 -0.574,-1.758 -0.527,-2.602 0.047,-0.867 0.234,-1.675 0.562,-2.425 0.352,-0.774 0.797,-1.465 1.336,-2.075 0.563,-0.632 1.16,-1.172 1.793,-1.617 0.633,-0.469 1.266,-0.82 1.899,-1.055 0.656,-0.234 1.23,-0.328 1.722,-0.281 0.493,0.024 0.879,0.199 1.16,0.528 0.282,0.328 0.376,0.832 0.282,1.511 0,0.914 -0.293,1.711 -0.879,2.391 -0.563,0.68 -1.195,1.289 -1.899,1.828 -0.679,0.539 -1.312,1.031 -1.898,1.477 -0.563,0.421 -0.844,0.82 -0.844,1.195 0,0.211 0.117,0.375 0.352,0.492 0.258,0.117 0.551,0.211 0.879,0.281 0.328,0.047 0.656,0.082 0.984,0.106 0.328,0.023 0.563,0.047 0.703,0.07 2.203,-0.469 3.856,-0.75 4.957,-0.844 1.102,-0.117 1.793,-0.105 2.074,0.036 0.282,0.117 0.223,0.316 -0.175,0.597 -0.375,0.258 -0.961,0.539 -1.758,0.844 -0.797,0.281 -1.723,0.539 -2.778,0.773 -1.054,0.235 -2.097,0.375 -3.128,0.422 -1.032,0.024 -1.993,-0.082 -2.883,-0.316 -0.867,-0.235 -1.512,-0.68 -1.934,-1.336 z m 6.153,-8.016 c -0.469,0 -0.915,0.129 -1.336,0.387 -0.422,0.258 -0.809,0.586 -1.161,0.984 -0.328,0.375 -0.609,0.797 -0.843,1.266 -0.235,0.445 -0.41,0.867 -0.528,1.266 0.047,0.023 0.082,0.035 0.106,0.035 h 0.105 c 0.328,0 0.703,-0.141 1.125,-0.422 0.422,-0.281 0.821,-0.621 1.196,-1.02 0.375,-0.422 0.691,-0.855 0.949,-1.3 0.258,-0.446 0.387,-0.844 0.387,-1.196 z"
     fill="#000000"
     id="path24" />
  <path
     d="m 184.115,0.00179899 c 1.283,-0.338 0.282,47.06500001 0.282,47.06500001 2.866,-0.296 5.727,-0.123 8.594,0 l 0.163,4.33 c 2.305,0.303 4.602,-0.035 6.846,0.384 v 29.835 L 0.1185,81.999799 0,71.822799 l 2.9784,-0.018 0.4742,-47.631 3.9713,-7.327 -0.1038,-11.126 1.7041,-0.055 0.163,11.181 3.9713,7.473 v 24.72 l 2.5932,-0.037 0.2815,9.446 2.4153,-0.018 -0.1333,-4.549 5.0381,-0.128 -0.163,-19.44 c -0.0835,0.652 6.7512,-0.807 6.6237,0.347 -0.2901,2.626 -0.0994,11.105 -0.0148,11.017 l 3.097,-0.182 -0.2815,-10.981 6.9645,-0.055 c 0.8727,0.525 0.158,-1.245 0.4001,-4.257 l 7.8684,-0.201 0.163,4.513 0.2371,13.283 4.3269,0.054 0.0592,3.983 4.7715,-0.054 -0.2223,-17.065 h 2.771 l -0.1482,-4.421 4.7566,-0.183 -0.163,-19.148 h 8.2833 l 0.3112,25.506 3.0229,0.018 -0.0593,4.805 c 9.1084,-0.133 3.1325,0.101 10.0324,-0.182 l 0.059,10.67 3.023,-0.201 -0.208,-10.579 2.282,-0.11 v -3.032 h 7.557 c 0.069,2.682 0.157,5.357 0.238,8.039 h 2.859 l 0.163,6.084 3.379,0.054 0.281,9.008 3.023,-0.238 -0.474,-23.934 5.572,-0.201 -0.163,-9.026 2.771,-0.128 -0.059,-2.612 0.874,-0.147 0.074,-2.21 1.319,0.109 -0.356,-11.291 h 1.274 l 0.356,11.072 2.134,-0.109 0.207,5.134 3.497,0.201 0.163,5.682 h 2.223 l 0.637,17.649 0.074,3.928 2.519,0.018 0.015,3.636 4.401,-0.128 -0.163,-3.727 3.29,-0.237 c 0.158,-6.458 -0.944,-23.936 -0.741,-25.47 l 3.438,-0.274 -0.089,-9.135 h 1.274 c 0.588,11.466 0.114,8.951 0.874,9.282 0.655,0.284 1.047,0.033 2.208,0.036 l 0.4,15 c 1.376,0.125 1.996,-0.077 2.238,-0.018 l -0.267,-5.974 1.541,-0.074 -0.103,-5.261 2.326,-0.037 -0.163,-4.147 2.49,-0.11 -0.089,-4.385 4.756,-0.201 0.163,4.312 2.03,-0.055 0.682,32.047 h 2.875 l -0.326,-22.765 10.194,-0.384 v -33.746 c 0.891,0.13 1.399,0.007 1.586,-0.347 0.245,-0.464 0.001,-1.328 0,-2.59400001 -0.15,0.123 6.403,0.234 7.987,-0.183 z"
     fill="#000000"
     id="path26" />
  <defs
     id="defs38">
    <clipPath
       id="clip0">
      <rect
         width="200"
         height="149.77699"
         fill="#ffffff"
         transform="translate(8,14)"
         id="rect35"
         x="0"
         y="0" />
    </clipPath>
  </defs>
  <path
     d="m 43.457,77.097799 c 0.1641,-1.36 0.4571,-2.649 0.8789,-3.868 0.4219,-1.242 0.9375,-2.437 1.5469,-3.585 0.6094,-1.172 1.2891,-2.321 2.0391,-3.446 0.75,-1.125 1.5469,-2.261 2.3906,-3.41 0.4922,-0.633 1.0313,-1.277 1.6172,-1.934 0.5859,-0.656 1.2187,-1.253 1.8984,-1.793 0.6797,-0.539 1.4063,-0.972 2.1797,-1.3 0.7969,-0.352 1.6289,-0.528 2.4961,-0.528 0.4688,0 0.832,0.036 1.0899,0.106 0.2578,0.047 0.4453,0.164 0.5624,0.351 0.1407,0.164 0.2227,0.411 0.2461,0.739 0.0235,0.328 0.0235,0.75 0,1.265 0,0.586 -0.1054,1.184 -0.3164,1.793 -0.2109,0.61 -0.5039,1.184 -0.8789,1.723 -0.375,0.539 -0.8203,1.019 -1.3359,1.441 -0.5156,0.399 -1.0664,0.692 -1.6523,0.879 v -0.492 c 0,-0.492 0.1054,-0.961 0.3164,-1.406 0.2343,-0.445 0.4921,-0.891 0.7734,-1.336 0.2812,-0.469 0.5273,-0.949 0.7383,-1.442 0.2343,-0.492 0.3515,-1.019 0.3515,-1.582 -0.2578,0 -0.4804,-0.011 -0.6679,-0.035 -0.1875,-0.047 -0.3633,-0.07 -0.5274,-0.07 -0.1406,-0.023 -0.2929,0 -0.457,0.07 -0.1406,0.047 -0.3164,0.164 -0.5273,0.352 -1.1485,0.937 -2.3321,2.039 -3.5508,3.305 -1.1953,1.242 -2.2852,2.589 -3.2696,4.043 -0.9843,1.453 -1.7929,2.976 -2.4257,4.57 -0.6094,1.57 -0.9141,3.152 -0.9141,4.746 v 0.351 c 0.0234,0.165 0.0352,0.329 0.0352,0.493 0.0234,0.164 0.0468,0.316 0.0703,0.457 0.0234,0.14 0.0351,0.222 0.0351,0.246 0.2578,0.258 0.5625,0.41 0.9141,0.457 0.375,0.047 0.6562,0.07 0.8437,0.07 1.0078,0 1.9453,-0.176 2.8125,-0.527 0.8907,-0.352 1.7578,-0.727 2.6016,-1.125 0.8437,-0.422 1.6875,-0.809 2.5312,-1.16 0.8672,-0.352 1.7813,-0.528 2.7422,-0.528 0,0.375 -0.2226,0.797 -0.6679,1.266 -0.4219,0.445 -0.9844,0.891 -1.6875,1.336 -0.6797,0.445 -1.4414,0.879 -2.2852,1.301 -0.8437,0.398 -1.6758,0.761 -2.4961,1.089 -0.7969,0.329 -1.5351,0.586 -2.2148,0.774 -0.6563,0.187 -1.1602,0.281 -1.5118,0.281 -0.5156,0 -1.0312,-0.094 -1.5468,-0.281 -0.5156,-0.211 -0.9844,-0.492 -1.4063,-0.844 -0.3984,-0.351 -0.7265,-0.762 -0.9843,-1.23 -0.2579,-0.492 -0.3868,-1.02 -0.3868,-1.582 z m 15.2578,1.617 c 0,-0.328 0.0352,-0.61 0.1055,-0.844 0.0703,-0.258 0.1992,-0.586 0.3867,-0.984 0.1641,-0.235 0.4571,-0.68 0.8789,-1.336 0.4453,-0.656 0.9024,-1.348 1.3711,-2.074 0.4922,-0.727 0.9492,-1.407 1.3711,-2.039 0.4453,-0.657 0.75,-1.114 0.9141,-1.372 0.2109,-0.304 0.375,-0.468 0.4922,-0.492 0.1172,-0.023 0.3398,-0.035 0.6679,-0.035 0.211,0 0.4336,0.012 0.668,0.035 0.2578,0.024 0.4219,0.188 0.4922,0.492 -0.3281,0.797 -0.7734,1.559 -1.3359,2.286 -0.5391,0.703 -1.0782,1.406 -1.6172,2.109 -0.5156,0.703 -0.9727,1.43 -1.3711,2.18 -0.3985,0.726 -0.5977,1.511 -0.5977,2.355 0.0938,0 0.2344,0.012 0.4219,0.035 0.2109,0.024 0.4336,0.047 0.668,0.071 0.2343,0.023 0.4453,0.046 0.6328,0.07 0.2109,0.023 0.3633,0.023 0.457,0 0.1406,-0.024 0.375,-0.07 0.7031,-0.141 0.3516,-0.093 0.7149,-0.187 1.0899,-0.281 0.3984,-0.094 0.7734,-0.188 1.125,-0.281 0.3515,-0.094 0.5976,-0.164 0.7383,-0.211 v 0.246 c 0.0234,0.094 0.0351,0.164 0.0351,0.211 0,0.469 -0.2226,0.855 -0.6679,1.16 -0.4219,0.305 -0.9258,0.551 -1.5118,0.738 -0.5625,0.164 -1.1484,0.282 -1.7578,0.352 -0.5859,0.047 -1.043,0.07 -1.3711,0.07 -0.3515,0 -0.7148,-0.035 -1.0898,-0.105 -0.3516,-0.094 -0.668,-0.235 -0.9492,-0.422 -0.2813,-0.188 -0.5157,-0.422 -0.7032,-0.703 -0.164,-0.305 -0.2461,-0.668 -0.2461,-1.09 z m 10.2305,-20.602 c 0.3047,0 0.5859,0.012 0.8438,0.035 0.2578,0.024 0.4804,0.082 0.6679,0.176 0.1875,0.094 0.3399,0.235 0.4571,0.422 0.1171,0.188 0.1757,0.445 0.1757,0.774 v 0.457 c 0,0.164 -0.0234,0.328 -0.0703,0.492 -0.0234,0.14 -0.082,0.269 -0.1757,0.386 -0.0938,0.094 -0.2461,0.141 -0.4571,0.141 -0.3281,0 -0.5976,-0.117 -0.8086,-0.351 -0.1875,-0.235 -0.3281,-0.504 -0.4219,-0.809 -0.0937,-0.328 -0.1523,-0.656 -0.1757,-0.984 -0.0235,-0.329 -0.0352,-0.575 -0.0352,-0.739 z m -1.8633,19.477 c 0,-0.68 0.1289,-1.36 0.3868,-2.039 0.2578,-0.68 0.5624,-1.348 0.914,-2.004 0.3516,-0.68 0.7031,-1.348 1.0547,-2.004 0.375,-0.656 0.6563,-1.301 0.8437,-1.934 -0.4453,0.258 -0.832,0.411 -1.1601,0.457 -0.3047,0.024 -0.6797,0.036 -1.125,0.036 h -0.457 c -0.2344,-0.024 -0.3868,-0.036 -0.4571,-0.036 0.1407,-0.515 0.3985,-0.972 0.7735,-1.371 0.375,-0.422 0.7968,-0.773 1.2656,-1.054 0.4922,-0.305 0.9961,-0.551 1.5117,-0.739 0.5391,-0.211 1.0195,-0.375 1.4414,-0.492 0.7031,-1.101 1.2774,-2.203 1.7227,-3.305 0.4453,-1.125 0.8906,-2.214 1.3359,-3.269 0.4688,-1.078 1.0078,-2.098 1.6172,-3.059 0.6328,-0.984 1.4766,-1.886 2.5312,-2.707 l 0.1758,1.336 -4.3945,10.301 c 0.2578,-0.07 0.5742,-0.141 0.9492,-0.211 0.375,-0.07 0.75,-0.141 1.125,-0.211 0.3985,-0.07 0.7735,-0.129 1.125,-0.176 0.375,-0.07 0.6914,-0.14 0.9492,-0.211 h 0.211 c 0.1172,-0.023 0.2109,-0.035 0.2812,-0.035 0.3281,0 0.5977,0.059 0.8086,0.176 0.211,0.117 0.3867,0.375 0.5274,0.773 -1.5938,0.469 -3.0352,0.961 -4.3243,1.477 -1.289,0.516 -2.414,1.195 -3.375,2.039 -0.9375,0.82 -1.7109,1.875 -2.3203,3.164 -0.5859,1.266 -0.9961,2.895 -1.2304,4.887 0,0.422 0.0234,0.809 0.0703,1.16 0.0468,0.352 0.3398,0.563 0.8789,0.633 0.539,0 1.0429,-0.106 1.5117,-0.317 0.4688,-0.21 0.9258,-0.433 1.3711,-0.667 0.4453,-0.258 0.8906,-0.493 1.3359,-0.704 0.4688,-0.211 0.9727,-0.316 1.5118,-0.316 0,0.562 -0.2461,1.078 -0.7383,1.547 -0.4922,0.469 -1.0899,0.879 -1.793,1.23 -0.6797,0.352 -1.3828,0.621 -2.1094,0.809 -0.7265,0.187 -1.3242,0.281 -1.7929,0.281 -0.4688,0 -0.8907,-0.094 -1.2657,-0.281 -0.375,-0.188 -0.6914,-0.434 -0.9492,-0.738 -0.2344,-0.328 -0.4219,-0.704 -0.5625,-1.125 -0.1172,-0.422 -0.1758,-0.856 -0.1758,-1.301 z m 17.554959,4.236587 c 0.891,-0.914 2.871041,-3.099587 3.504041,-4.201587 0.632,-1.125 1.066,-2.426 1.3,-3.902 0,-0.047 -0.011,-0.118 -0.035,-0.211 v -0.246 c -0.539,0.632 -1.195,1.347 -1.968,2.144 -0.75,0.797 -1.571,1.547 -2.4614,2.25 -0.8672,0.703 -1.7813,1.289 -2.7422,1.758 -0.961,0.469 -1.8985,0.703 -2.8125,0.703 -0.2344,0 -0.5391,-0.012 -0.9141,-0.035 -0.3516,-0.047 -0.7031,-0.129 -1.0547,-0.246 -0.3515,-0.117 -0.6562,-0.281 -0.914,-0.492 -0.2579,-0.211 -0.3868,-0.493 -0.3868,-0.844 0,-0.305 0.0821,-0.774 0.2461,-1.406 0.1641,-0.633 0.3868,-1.336 0.668,-2.11 0.2813,-0.773 0.5977,-1.558 0.9492,-2.355 0.3516,-0.797 0.7266,-1.524 1.125,-2.18 0.3985,-0.656 0.7852,-1.195 1.1602,-1.617 0.3984,-0.422 0.7617,-0.633 1.0898,-0.633 0.3282,0 0.6094,0.07 0.8438,0.211 0.2344,0.141 0.3515,0.375 0.3515,0.703 0,0.586 -0.2109,1.172 -0.6328,1.758 -0.4219,0.586 -0.8789,1.219 -1.3711,1.898 -0.4922,0.657 -0.9492,1.372 -1.3711,2.145 -0.4218,0.773 -0.6328,1.652 -0.6328,2.637 1.5469,0 2.9414,-0.317 4.1836,-0.95 1.2422,-0.656 2.3673,-1.464 3.3753,-2.425 1.008,-0.961 1.898,-2.004 2.672,-3.129 0.773,-1.125 1.453,-2.168 2.039,-3.129 0.609,-0.961 1.125,-1.758 1.547,-2.391 0.445,-0.656 0.82,-0.984 1.125,-0.984 0.445,0 0.703,0.141 0.773,0.422 0.094,0.258 0.141,0.586 0.141,0.984 -0.211,0.727 -0.504,1.582 -0.879,2.567 -0.375,0.96 -0.762,1.98 -1.16,3.058 -0.375,1.055 -0.727,2.11 -1.055,3.164 -0.305,1.055 -0.504,2.016 -0.598,2.883 v 0.105 c 0.024,0.047 0.035,0.082 0.035,0.106 0.422,-0.141 0.821,-0.387 1.196,-0.738 0.375,-0.352 0.738,-0.703 1.089,-1.055 0.376,-0.375 0.75,-0.703 1.126,-0.984 0.374,-0.305 0.761,-0.457 1.16,-0.457 0.023,0 0.105,0.164 0.246,0.492 0.164,0.328 0.164,0.726 0,1.195 -0.211,0.164 -0.598,0.445 -1.16,0.844 -0.539,0.398 -1.114,0.82 -1.723,1.265 -0.609,0.422 -1.184,0.844 -1.723,1.266 -0.539,0.398 -0.914,0.703 -1.125,0.914 -0.328,0.328 -0.573747,0.643568 -0.924747,1.252568 z M 95.102,73.229799 c 0,-0.375 0.023,-0.785 0.07,-1.23 0.047,-0.469 0.152,-0.891 0.316,-1.266 0.164,-0.375 0.399,-0.691 0.703,-0.949 0.329,-0.258 0.762,-0.387 1.301,-0.387 0,0.305 -0.035,0.586 -0.105,0.844 -0.047,0.258 -0.117,0.516 -0.211,0.774 -0.071,0.257 -0.141,0.539 -0.211,0.843 -0.047,0.282 -0.07,0.598 -0.07,0.95 0,0.89 0.117,1.722 0.351,2.496 0.234,0.773 0.586,1.453 1.055,2.039 0.492,0.562 1.09,1.008 1.793,1.336 0.726,0.328 1.582,0.492 2.566,0.492 0.422,0 0.938,-0.094 1.547,-0.281 0.609,-0.188 1.219,-0.411 1.828,-0.668 0.61,-0.258 1.172,-0.516 1.688,-0.774 0.515,-0.258 0.879,-0.445 1.089,-0.562 0.516,-0.282 0.926,-0.668 1.231,-1.16 0.305,-0.516 0.539,-1.067 0.703,-1.653 0.164,-0.609 0.27,-1.219 0.316,-1.828 0.047,-0.633 0.071,-1.195 0.071,-1.687 0,-0.797 -0.082,-1.571 -0.246,-2.321 -0.141,-0.773 -0.305,-1.535 -0.492,-2.285 -0.165,-0.75 -0.329,-1.5 -0.493,-2.25 -0.14,-0.75 -0.211,-1.512 -0.211,-2.285 0.258,-0.727 0.657,-1.383 1.196,-1.969 0.562,-0.609 1.195,-1.125 1.898,-1.547 0.727,-0.445 1.5,-0.797 2.32,-1.054 0.821,-0.258 1.618,-0.41 2.391,-0.457 0.633,0.164 1.113,0.375 1.442,0.632 0.328,0.235 0.55,0.493 0.667,0.774 0.141,0.281 0.176,0.551 0.106,0.808 -0.07,0.258 -0.188,0.493 -0.352,0.704 -0.257,-0.563 -0.597,-0.938 -1.019,-1.125 -0.399,-0.188 -0.856,-0.246 -1.371,-0.176 -0.492,0.07 -0.996,0.246 -1.512,0.527 -0.516,0.281 -1.008,0.598 -1.477,0.949 -0.468,0.352 -0.878,0.727 -1.23,1.125 -0.352,0.375 -0.609,0.703 -0.773,0.985 0,0.703 0.07,1.394 0.211,2.074 0.164,0.656 0.328,1.324 0.492,2.004 0.187,0.656 0.351,1.324 0.492,2.004 0.164,0.656 0.246,1.336 0.246,2.039 0,1.687 -0.27,3.234 -0.809,4.64 -0.515,1.383 -1.277,2.579 -2.285,3.586 -0.984,0.985 -2.191,1.747 -3.621,2.286 -1.406,0.539 -2.988,0.808 -4.746,0.808 -1.102,0 -2.086,-0.223 -2.953,-0.668 -0.844,-0.445 -1.559,-1.031 -2.145,-1.758 -0.562,-0.75 -0.996,-1.593 -1.3,-2.531 -0.305,-0.937 -0.457,-1.887 -0.457,-2.848 z m 29.425,-4.957 c -0.539,0.071 -1.16,0.411 -1.863,1.02 -0.703,0.586 -1.383,1.312 -2.039,2.18 -0.633,0.843 -1.172,1.769 -1.617,2.777 -0.446,0.984 -0.668,1.898 -0.668,2.742 0,0.68 0.176,1.16 0.527,1.442 0.352,0.257 0.856,0.386 1.512,0.386 0.703,0 1.383,-0.082 2.039,-0.246 0.68,-0.187 1.348,-0.375 2.004,-0.562 0.68,-0.211 1.348,-0.399 2.004,-0.563 0.679,-0.187 1.371,-0.281 2.074,-0.281 0,0.328 -0.047,0.609 -0.141,0.844 -0.093,0.211 -0.234,0.445 -0.421,0.703 -1.219,0.586 -2.473,1.125 -3.762,1.617 -1.289,0.469 -2.637,0.703 -4.043,0.703 -0.422,0 -0.867,-0.07 -1.336,-0.211 -0.469,-0.164 -0.902,-0.386 -1.301,-0.668 -0.398,-0.281 -0.738,-0.621 -1.019,-1.019 -0.258,-0.399 -0.387,-0.844 -0.387,-1.336 0,-1.055 0.152,-2.074 0.457,-3.059 0.305,-1.008 0.726,-1.957 1.265,-2.847 0.54,-0.891 1.184,-1.711 1.934,-2.461 0.774,-0.75 1.606,-1.407 2.496,-1.969 v -0.035 c 0.352,-0.211 0.75,-0.41 1.196,-0.598 0.468,-0.211 0.902,-0.328 1.3,-0.352 0.399,-0.046 0.727,0.047 0.985,0.282 0.281,0.211 0.422,0.621 0.422,1.23 0,0.281 -0.024,0.656 -0.071,1.125 -0.047,0.445 -0.176,0.762 -0.386,0.949 -0.188,0.118 -0.434,0.223 -0.739,0.317 -0.14,0.047 -0.281,0.082 -0.422,0.105 z m 3.973,10.442 c 0.211,-1.336 0.609,-2.567 1.195,-3.692 0.586,-1.125 1.254,-2.097 2.004,-2.918 0.774,-0.843 1.606,-1.535 2.496,-2.074 0.891,-0.539 1.758,-0.879 2.602,-1.019 0.844,-0.164 1.617,-0.129 2.32,0.105 0.727,0.235 1.313,0.703 1.758,1.406 0,0.539 -0.129,1.055 -0.387,1.547 -0.234,0.492 -0.504,0.985 -0.808,1.477 -0.282,0.492 -0.551,0.996 -0.809,1.512 -0.234,0.515 -0.351,1.066 -0.351,1.652 0,0.609 0.128,1.101 0.386,1.477 0.282,0.351 0.762,0.527 1.442,0.527 0.562,0 1.101,-0.082 1.617,-0.246 0.539,-0.164 1.078,-0.246 1.617,-0.246 0.094,0 0.246,0.011 0.457,0.035 h 0.457 c -0.281,0.398 -0.644,0.738 -1.09,1.019 -0.445,0.282 -0.914,0.528 -1.406,0.739 -0.492,0.187 -1.008,0.328 -1.547,0.422 -0.515,0.093 -0.996,0.14 -1.441,0.14 -0.422,0 -0.797,-0.094 -1.125,-0.281 -0.328,-0.188 -0.61,-0.434 -0.844,-0.738 -0.234,-0.305 -0.422,-0.645 -0.563,-1.02 -0.117,-0.398 -0.175,-0.785 -0.175,-1.16 -0.352,0.398 -0.739,0.82 -1.16,1.266 -0.399,0.421 -0.833,0.808 -1.301,1.16 -0.446,0.351 -0.938,0.644 -1.477,0.879 -0.515,0.234 -1.055,0.351 -1.617,0.351 -0.609,0 -1.137,-0.223 -1.582,-0.668 -0.445,-0.469 -0.668,-1.019 -0.668,-1.652 z m 2.32,-1.09 v 0.633 c 0.024,0.234 0.176,0.387 0.457,0.457 0.586,-0.141 1.254,-0.445 2.004,-0.914 0.75,-0.492 1.453,-1.055 2.11,-1.688 0.656,-0.656 1.207,-1.347 1.652,-2.074 0.445,-0.75 0.668,-1.465 0.668,-2.144 0,-0.047 -0.012,-0.118 -0.035,-0.211 v -0.246 c -0.797,0 -1.606,0.164 -2.426,0.492 -0.82,0.328 -1.559,0.785 -2.215,1.371 -0.656,0.562 -1.195,1.219 -1.617,1.969 -0.398,0.75 -0.598,1.535 -0.598,2.355 z m 12.29472,4.079708 c 0,0 1.79128,-3.868708 2.11928,-4.571708 0.352,-0.727 0.61,-1.266 0.774,-1.617 0.304,-0.493 0.726,-1.067 1.265,-1.723 0.563,-0.656 1.184,-1.324 1.864,-2.004 0.679,-0.68 1.406,-1.336 2.179,-1.969 0.797,-0.656 1.571,-1.23 2.321,-1.722 0.773,-0.516 1.523,-0.926 2.25,-1.231 0.726,-0.328 1.371,-0.492 1.933,-0.492 0.844,0 1.442,0.152 1.793,0.457 0.352,0.305 0.528,0.926 0.528,1.863 0,1.008 -0.2,2.016 -0.598,3.024 -0.375,0.984 -0.891,1.922 -1.547,2.812 -0.656,0.891 -1.43,1.699 -2.32,2.426 -0.867,0.727 -1.793,1.324 -2.778,1.793 -0.96,0.469 -1.957,0.797 -2.988,0.984 -1.031,0.164 -2.027,0.129 -2.988,-0.105 l -1.16192,2.094593 c -1.46865,0.01866 -2.64536,-0.01888 -2.64536,-0.01888 z M 155.57,73.722799 c 1.102,-1.172 1.817,-2.098 2.145,-2.778 0.328,-0.703 0.398,-1.195 0.211,-1.476 -0.188,-0.281 -0.563,-0.387 -1.125,-0.317 -0.563,0.071 -1.196,0.27 -1.899,0.598 -0.703,0.328 -1.418,0.762 -2.144,1.301 -0.703,0.539 -1.289,1.125 -1.758,1.758 -0.211,0.234 -0.469,0.55 -0.773,0.949 -0.305,0.375 -0.61,0.762 -0.915,1.16 -0.281,0.375 -0.527,0.715 -0.738,1.02 -0.211,0.304 -0.316,0.48 -0.316,0.527 v 0.738 c 1.617,0 3,-0.234 4.148,-0.703 1.149,-0.492 2.203,-1.418 3.164,-2.777 z m 6.047,5.449 c -0.398,-0.891 -0.574,-1.758 -0.527,-2.602 0.047,-0.867 0.234,-1.675 0.562,-2.425 0.352,-0.774 0.797,-1.465 1.336,-2.075 0.563,-0.632 1.16,-1.172 1.793,-1.617 0.633,-0.469 1.266,-0.82 1.899,-1.055 0.656,-0.234 1.23,-0.328 1.722,-0.281 0.493,0.024 0.879,0.199 1.16,0.528 0.282,0.328 0.376,0.832 0.282,1.511 0,0.914 -0.293,1.711 -0.879,2.391 -0.563,0.68 -1.195,1.289 -1.899,1.828 -0.679,0.539 -1.312,1.031 -1.898,1.477 -0.563,0.421 -0.844,0.82 -0.844,1.195 0,0.211 0.117,0.375 0.352,0.492 0.258,0.117 0.551,0.211 0.879,0.281 0.328,0.047 0.656,0.082 0.984,0.106 0.328,0.023 0.563,0.047 0.703,0.07 2.203,-0.469 3.856,-0.75 4.957,-0.844 1.102,-0.117 1.793,-0.105 2.074,0.036 0.282,0.117 0.223,0.316 -0.175,0.597 -0.375,0.258 -0.961,0.539 -1.758,0.844 -0.797,0.281 -1.723,0.539 -2.778,0.773 -1.054,0.235 -2.097,0.375 -3.128,0.422 -1.032,0.024 -1.993,-0.082 -2.883,-0.316 -0.867,-0.235 -1.512,-0.68 -1.934,-1.336 z m 6.153,-8.016 c -0.469,0 -0.915,0.129 -1.336,0.387 -0.422,0.258 -0.809,0.586 -1.161,0.984 -0.328,0.375 -0.609,0.797 -0.843,1.266 -0.235,0.445 -0.41,0.867 -0.528,1.266 0.047,0.023 0.082,0.035 0.106,0.035 h 0.105 c 0.328,0 0.703,-0.141 1.125,-0.422 0.422,-0.281 0.821,-0.621 1.196,-1.02 0.375,-0.422 0.691,-0.855 0.949,-1.3 0.258,-0.446 0.387,-0.844 0.387,-1.196 z"
     fill="#000000"
     id="path1412"
     style="fill:#ffffff"
     sodipodi:nodetypes="cccsccccscccccsccscccccccccccscccccscccccccccsccccscccccccscccccccccccccccscccscccsccscssccsccccscccccsccccccccccccsccccsccccccccccccsccscccsccccccccscccscccccssssccccscccscccccccccccscccccsccscscccccscccscccccccsccccccccccccccsccccccscccscccsccccscscccccccscccsccccccccsccccccsccccccccscscscccccscccccccsccscccccsccsccsccccccccscsccccccccccccscccccscccccccccccccccscccccccccccccccccssscccc" />
</svg>
