<svg width="21" height="22" viewBox="0 0 21 22" fill="none" xmlns="http://www.w3.org/2000/svg">
<path fill-rule="evenodd" clip-rule="evenodd" d="M19.8122 11.25C19.8122 10.47 19.7479 9.72 19.6284 9H10.1084V13.255H15.5484C15.3141 14.63 14.6019 15.795 13.5314 16.575V19.335H16.7981C18.7095 17.42 19.8122 14.6 19.8122 11.25Z" fill="#4285F4"/>
<path fill-rule="evenodd" clip-rule="evenodd" d="M10.1082 22C12.8374 22 15.1255 21.015 16.7979 19.335L13.5311 16.575C12.626 17.235 11.4682 17.625 10.1082 17.625C7.47547 17.625 5.24709 15.69 4.45222 13.09H1.0752V15.94C2.73844 19.535 6.15682 22 10.1082 22Z" fill="#34A853"/>
<path fill-rule="evenodd" clip-rule="evenodd" d="M4.45216 13.0899C4.25 12.4299 4.13514 11.7249 4.13514 10.9999C4.13514 10.2749 4.25 9.56994 4.45216 8.90994V6.05994H1.07514C0.390541 7.54494 0 9.22494 0 10.9999C0 12.7749 0.390541 14.4549 1.07514 15.9399L4.45216 13.0899Z" fill="#FBBC05"/>
<path fill-rule="evenodd" clip-rule="evenodd" d="M10.1082 4.375C11.5922 4.375 12.9247 4.93 13.9722 6.02L16.8714 2.865C15.1209 1.09 12.8328 0 10.1082 0C6.15682 0 2.73844 2.465 1.0752 6.06L4.45222 8.91C5.24709 6.31 7.47547 4.375 10.1082 4.375Z" fill="#EA4335"/>
</svg>
