<svg xmlns="http://www.w3.org/2000/svg" width="86" height="86" viewBox="0 0 86 86"><defs><style>.a{fill:none;}</style></defs><path class="a" d="M0,0H86V86H0Z"/><path d="M74.111,9.2H55.533a13.678,13.678,0,0,0-25.067,0H11.889C7,9.2,3,12.89,3,17.4V74.8C3,79.31,7,83,11.889,83H74.111C79,83,83,79.31,83,74.8V17.4C83,12.89,79,9.2,74.111,9.2ZM43,9.2a4.3,4.3,0,0,1,4.444,4.1,4.459,4.459,0,0,1-8.889,0A4.3,4.3,0,0,1,43,9.2ZM30.956,63.689,19.444,53.07a3.863,3.863,0,0,1,0-5.781,4.693,4.693,0,0,1,6.267,0L34.111,55,60.244,30.889a4.693,4.693,0,0,1,6.267,0,3.863,3.863,0,0,1,0,5.781L37.222,63.689a4.693,4.693,0,0,1-6.267,0Z" transform="translate(0)"/></svg>