<svg xmlns="http://www.w3.org/2000/svg" width="40" height="40" viewBox="0 0 40 40"><defs><style>.a{fill:none;}</style></defs><path class="a" d="M0,0H40V40H0Z"/><path d="M33.222,4.6h-7.9a5.741,5.741,0,0,0-10.653,0h-7.9A3.7,3.7,0,0,0,3,8.2V33.4A3.7,3.7,0,0,0,6.778,37H33.222A3.7,3.7,0,0,0,37,33.4V8.2A3.7,3.7,0,0,0,33.222,4.6ZM20,4.6a1.851,1.851,0,0,1,1.889,1.8,1.891,1.891,0,0,1-3.778,0A1.851,1.851,0,0,1,20,4.6Zm1.889,25.2H12.444a1.8,1.8,0,1,1,0-3.6h9.444a1.8,1.8,0,1,1,0,3.6Zm5.667-7.2H12.444a1.8,1.8,0,1,1,0-3.6H27.556a1.8,1.8,0,1,1,0,3.6Zm0-7.2H12.444a1.8,1.8,0,1,1,0-3.6H27.556a1.8,1.8,0,1,1,0,3.6Z" transform="translate(0 0)"/></svg>