<svg xmlns="http://www.w3.org/2000/svg" width="86" height="86" viewBox="0 0 86 86"><defs><style>.a{fill:none;}</style></defs><path class="a" d="M0,0H86V86H0Z"/><path d="M43,2A41,41,0,1,0,84,43,41.015,41.015,0,0,0,43,2Zm5.781,65.969v2.378A5.477,5.477,0,0,1,43.328,75.8h-.041a5.477,5.477,0,0,1-5.453-5.453v-2.46c-5.453-1.148-10.291-4.141-12.341-9.184a3.491,3.491,0,0,1,3.28-4.756h.984a3.642,3.642,0,0,1,3.321,2.46c1.189,3.075,4.305,5.207,10.291,5.207,8.036,0,9.84-4.018,9.84-6.519,0-3.4-1.8-6.6-10.947-8.774-10.168-2.46-17.138-6.642-17.138-15.047,0-7.052,5.7-11.644,12.751-13.161v-2.46A5.477,5.477,0,0,1,43.328,10.2h.041a5.477,5.477,0,0,1,5.453,5.453v2.542c5.658,1.394,9.225,4.92,10.783,9.266a3.485,3.485,0,0,1-3.321,4.633H55.218a3.315,3.315,0,0,1-3.157-2.542c-.943-3.116-3.526-5.125-8.692-5.125-6.15,0-9.84,2.788-9.84,6.724,0,3.444,2.665,5.7,10.947,7.831s17.138,5.7,17.138,16.031c-.082,7.5-5.7,11.6-12.833,12.956Z"/></svg>