<svg xmlns="http://www.w3.org/2000/svg" width="40" height="40" viewBox="0 0 40 40"><defs><style>.a{fill:none;}</style></defs><path class="a" d="M0,0H40V40H0Z"/><path d="M3,6.778V33.222A3.777,3.777,0,0,0,6.778,37H33.222A3.789,3.789,0,0,0,37,33.222V6.778A3.789,3.789,0,0,0,33.222,3H6.778A3.777,3.777,0,0,0,3,6.778Zm22.667,7.556A5.667,5.667,0,1,1,20,8.667,5.659,5.659,0,0,1,25.667,14.333Zm-17,15.111c0-3.778,7.556-5.856,11.333-5.856s11.333,2.078,11.333,5.856v1.889H8.667Z" transform="translate(0 0)"/></svg>