<svg width="17" height="16" viewBox="0 0 17 16" fill="none" xmlns="http://www.w3.org/2000/svg">
<path d="M6.45423 6.69488C7.96047 6.69488 9.18151 5.42004 9.18151 3.84744C9.18151 2.27484 7.96047 1 6.45423 1C4.948 1 3.72696 2.27484 3.72696 3.84744C3.72696 5.42004 4.948 6.69488 6.45423 6.69488Z" stroke="#959595" stroke-width="2" stroke-linecap="round" stroke-linejoin="round"/>
<path d="M1.03442 3.84741H3.72761" stroke="#959595" stroke-width="2" stroke-linecap="round" stroke-linejoin="round"/>
<path d="M9.86353 3.84741L15.9999 3.84741" stroke="#959595" stroke-width="2" stroke-linecap="round" stroke-linejoin="round"/>
<path d="M11.5685 14.9999C13.1374 14.9999 14.4094 13.672 14.4094 12.0339C14.4094 10.3957 13.1374 9.06778 11.5685 9.06778C9.99946 9.06778 8.72754 10.3957 8.72754 12.0339C8.72754 13.672 9.99946 14.9999 11.5685 14.9999Z" stroke="#959595" stroke-width="2" stroke-linecap="round" stroke-linejoin="round"/>
<path d="M1 12.3898L7.81819 12.3898" stroke="#959595" stroke-width="2" stroke-linecap="round" stroke-linejoin="round"/>
<path d="M14.6365 12.3898L16.0001 12.3898" stroke="#959595" stroke-width="2" stroke-linecap="round" stroke-linejoin="round"/>
</svg>
