<svg width="38" height="40" viewBox="0 0 38 40" fill="none" xmlns="http://www.w3.org/2000/svg">
<path d="M37.2807 28.5797L36.5326 27.8317C36.0177 27.3196 35.6095 26.7104 35.3316 26.0395C35.0537 25.3686 34.9116 24.6492 34.9136 23.923V21.1416C35.3245 20.6752 35.5515 20.075 35.5521 19.4533V6.68278C35.5504 5.15918 34.9444 3.69847 33.867 2.62112C32.7897 1.54377 31.329 0.93776 29.8054 0.936037H24.1732C22.8432 0.934862 21.5654 1.45315 20.612 2.38045C20.403 1.94795 20.0764 1.58308 19.6696 1.32763C19.2628 1.07217 18.7922 0.93646 18.3119 0.936037H10.1256C8.88103 0.937762 7.67976 1.39309 6.74674 2.21675C5.81372 3.04041 5.21293 4.17593 5.05686 5.41068L4.7109 8.17832C3.96381 8.89219 3.36927 9.75017 2.96325 10.7004C2.55723 11.6506 2.34816 12.6733 2.34869 13.7066V22.1737C1.75765 22.585 1.27479 23.133 0.941252 23.7711C0.607712 24.4093 0.433379 25.1186 0.433105 25.8386V36.055C0.433103 36.1389 0.449617 36.2219 0.481706 36.2994C0.513794 36.3769 0.560827 36.4473 0.62012 36.5066C0.679414 36.5659 0.749805 36.6129 0.827276 36.645C0.904747 36.6771 0.98778 36.6936 1.07163 36.6936H2.34869V38.6092C2.34869 38.693 2.3652 38.776 2.39729 38.8535C2.42938 38.931 2.47641 39.0014 2.5357 39.0607C2.595 39.12 2.66539 39.167 2.74286 39.1991C2.82033 39.2312 2.90336 39.2477 2.98722 39.2477H27.2513C27.3351 39.2477 27.4181 39.2312 27.4956 39.1991C27.5731 39.167 27.6435 39.12 27.7028 39.0607C27.7621 39.0014 27.8091 38.931 27.8412 38.8535C27.8733 38.776 27.8898 38.693 27.8898 38.6092V37.5966L30.8954 34.591C32.2973 33.1865 33.3788 31.4954 34.0657 29.6337C34.133 29.6573 34.2037 29.6695 34.2751 29.6698H36.8292C36.9555 29.6698 37.0789 29.6323 37.1839 29.5622C37.2889 29.492 37.3708 29.3923 37.4191 29.2756C37.4674 29.1589 37.4801 29.0305 37.4554 28.9067C37.4308 28.7828 37.37 28.669 37.2807 28.5797ZM30.4312 33.2237L29.4187 32.2113C30.6646 30.8274 31.5539 29.1604 32.0095 27.3549C32.296 27.8431 32.642 28.2939 33.0395 28.6969C32.4991 30.3729 31.6102 31.9157 30.4312 33.2237ZM32.3595 23.2845V20.7304H33.6365V23.2845H32.3595ZM34.2751 6.68278V19.4533H31.721V6.68278C31.7219 5.82737 31.5315 4.98257 31.1637 4.21024C30.796 3.43791 30.2602 2.75759 29.5956 2.21908C29.665 2.2153 29.7349 2.21309 29.8054 2.21309C30.9904 2.21443 32.1265 2.68578 32.9644 3.52372C33.8024 4.36166 34.2737 5.49776 34.2751 6.68278ZM27.9696 2.68255C28.7136 3.05282 29.3394 3.62347 29.7766 4.33023C30.2137 5.03698 30.4448 5.85176 30.4439 6.68278V19.4533C30.4445 20.075 30.6715 20.6752 31.0824 21.1416V24.5162C31.0894 27.0183 30.1751 29.4354 28.514 31.3066L27.8898 30.6824V13.7066C27.8913 11.8418 27.2098 10.041 25.9742 8.64441V6.04426C25.9747 5.35645 26.1602 4.68144 26.5113 4.08998C26.8624 3.49852 27.3661 3.01239 27.9696 2.68255ZM17.0348 6.04426H14.4807V5.40573H17.0348V6.04426ZM20.2275 7.32131C21.9204 7.32322 23.5434 7.99657 24.7404 9.19362C25.9375 10.3907 26.6108 12.0137 26.6127 13.7066V25.2001H21.5045V13.7066C21.5041 12.4417 21.1904 11.1966 20.5916 10.0824C19.9928 8.96818 19.1274 8.01961 18.0727 7.32131H20.2275ZM21.5045 26.4771H26.6127V35.4165H21.5045V26.4771ZM24.1732 2.21309H26.4301C25.8854 2.69171 25.449 3.28102 25.1502 3.94168C24.8514 4.60235 24.6969 5.31915 24.6971 6.04426V7.48681C23.5728 6.67497 22.2481 6.18547 20.866 6.07108V4.10938C21.2034 3.53178 21.6863 3.05273 22.2666 2.72C22.8469 2.38727 23.5043 2.21249 24.1732 2.21309ZM18.3119 2.21309C18.6505 2.21348 18.9751 2.34815 19.2145 2.58756C19.4539 2.82697 19.5885 3.15157 19.5889 3.49015V6.04426H18.3119V3.49015C18.3124 3.04166 18.1942 2.60103 17.9691 2.21309H18.3119ZM15.7578 2.21309C16.0963 2.21348 16.4209 2.34815 16.6604 2.58756C16.8998 2.82697 17.0344 3.15157 17.0348 3.49015V4.12867H14.4807V3.49015C14.4811 3.15157 14.6158 2.82697 14.8552 2.58756C15.0946 2.34815 15.4192 2.21348 15.7578 2.21309ZM13.5464 2.21309C13.3214 2.60103 13.2031 3.04166 13.2037 3.49015V6.04426H11.9266V3.49015C11.927 3.15157 12.0617 2.82697 12.3011 2.58756C12.5405 2.34815 12.8651 2.21348 13.2037 2.21309H13.5464ZM6.32401 5.56906C6.44108 4.64301 6.89169 3.79138 7.59145 3.17363C8.29122 2.55589 9.19217 2.21439 10.1256 2.21309H10.9931C10.7678 2.60093 10.6492 3.04158 10.6495 3.49015V6.04426H10.011C8.64689 6.04271 7.30739 6.40762 6.13254 7.10085L6.32401 5.56906ZM3.62574 13.7066C3.62765 12.0137 4.301 10.3907 5.49806 9.19362C6.69511 7.99657 8.31812 7.32322 10.011 7.32131H13.8422C15.5351 7.32322 17.1581 7.99657 18.3551 9.19362C19.5522 10.3907 20.2255 12.0137 20.2275 13.7066V35.4165H18.9504V22.0074C18.9504 21.9236 18.9339 21.8406 18.9018 21.7631C18.8697 21.6856 18.8227 21.6152 18.7634 21.5559C18.7041 21.4966 18.6337 21.4496 18.5562 21.4175C18.4788 21.3854 18.3957 21.3689 18.3119 21.3689H4.9028C4.4703 21.3689 4.0401 21.4318 3.62574 21.5558V13.7066ZM17.6733 22.7102V25.2001H15.1835C15.3098 24.5872 15.613 24.0247 16.0555 23.5822C16.498 23.1397 17.0604 22.8365 17.6733 22.7102ZM15.1192 26.4771H17.6733V35.4165H15.1192V26.4771ZM4.9028 22.646H15.188C14.4857 23.3313 14.029 24.229 13.8885 25.2001H1.77431C1.92248 24.4795 2.31454 23.832 2.88441 23.3668C3.45429 22.9015 4.16713 22.6469 4.9028 22.646ZM1.71016 26.4771H13.8422V35.4165H1.71016V26.4771ZM3.62574 36.6936H20.2275V37.9706H3.62574V36.6936ZM26.6127 37.9706H21.5045V36.6936H26.6127V37.9706ZM27.8898 35.7906V32.4883L29.5409 34.1395L27.8898 35.7906ZM34.5396 28.3927L33.9785 27.8317C33.0953 26.9529 32.5376 25.7996 32.3972 24.5616H33.6663C33.7958 25.9801 34.3711 27.3213 35.3099 28.3927H34.5396Z" fill="black"/>
</svg>
