<svg width="39" height="29" viewBox="0 0 39 29" fill="none" xmlns="http://www.w3.org/2000/svg">
<path d="M37.7004 25.5642C37.2323 25.4082 36.7638 25.2583 36.2948 25.1146V15.2168C36.2948 11.9338 34.4989 8.86215 31.2381 6.56754C28.7724 4.8322 25.6858 3.69946 22.3375 3.27194V1.25943C22.3375 1.09848 22.2735 0.944132 22.1597 0.830327C22.0459 0.716523 21.8916 0.652588 21.7306 0.652588H16.8759C16.715 0.652588 16.5606 0.716523 16.4468 0.830327C16.333 0.944132 16.2691 1.09848 16.2691 1.25943V3.27194C12.9207 3.69946 9.83412 4.83235 7.36838 6.56754C4.10752 8.86215 2.31173 11.9338 2.31173 15.2168V25.1146C1.8428 25.2588 1.37426 25.4087 0.906138 25.5642C0.785317 25.6045 0.68023 25.6818 0.605762 25.7851C0.531293 25.8884 0.491217 26.0125 0.491211 26.1399V27.9604C0.491211 28.1213 0.555146 28.2757 0.66895 28.3895C0.782755 28.5033 0.937107 28.5672 1.09805 28.5672H37.5085C37.6694 28.5672 37.8238 28.5033 37.9376 28.3895C38.0514 28.2757 38.1153 28.1213 38.1153 27.9604V26.1399C38.1153 26.0125 38.0752 25.8884 38.0007 25.7851C37.9263 25.6818 37.8212 25.6045 37.7004 25.5642ZM17.4827 3.07995V1.86627H21.1238V3.07995H17.4827ZM3.52541 15.2168C3.52541 9.19386 10.6034 4.29363 19.3033 4.29363C28.0031 4.29363 35.0811 9.19386 35.0811 15.2168V24.7549C29.8319 23.2574 24.5367 22.4988 19.3033 22.4988C14.0698 22.4988 8.77458 23.2574 3.52541 24.7549V15.2168ZM36.9016 27.3536H1.70489V26.5789C7.54831 24.6767 13.4668 23.7125 19.3033 23.7125C25.1397 23.7125 31.0582 24.6767 36.9016 26.5789V27.3536Z" fill="black"/>
<path d="M25.372 18.8577C25.4794 18.8577 25.5848 18.8292 25.6776 18.7751C25.7704 18.721 25.8471 18.6433 25.9001 18.5499C25.953 18.4564 25.9801 18.3506 25.9788 18.2432C25.9774 18.1358 25.9476 18.0307 25.8923 17.9386L22.2513 11.8702C22.1974 11.7804 22.1211 11.706 22.0299 11.6544C21.9387 11.6027 21.8357 11.5756 21.7309 11.5756C21.6261 11.5756 21.5231 11.6027 21.4319 11.6544C21.3407 11.706 21.2645 11.7804 21.2106 11.8702L20.5173 13.026L18.3068 9.34199C18.2529 9.25213 18.1767 9.17777 18.0855 9.12613C17.9943 9.0745 17.8913 9.04736 17.7865 9.04736C17.6817 9.04736 17.5787 9.0745 17.4875 9.12613C17.3963 9.17777 17.32 9.25213 17.2661 9.34199L12.108 17.9386C12.0527 18.0307 12.0229 18.1358 12.0215 18.2432C12.0202 18.3506 12.0473 18.4564 12.1003 18.5499C12.1532 18.6433 12.2299 18.721 12.3227 18.7751C12.4155 18.8292 12.5209 18.8577 12.6283 18.8577H25.372ZM21.7309 13.362L24.3001 17.644H23.2882L21.225 14.2053L21.7309 13.362ZM17.7865 10.8337L21.8728 17.644H13.7002L17.7865 10.8337Z" fill="black"/>
<path d="M24.4613 10.9703C24.8814 10.9703 25.2921 10.8457 25.6413 10.6123C25.9906 10.379 26.2629 10.0472 26.4236 9.65915C26.5844 9.27105 26.6264 8.844 26.5445 8.43199C26.4625 8.01999 26.2602 7.64154 25.9632 7.3445C25.6662 7.04746 25.2877 6.84518 24.8757 6.76322C24.4637 6.68127 24.0366 6.72333 23.6485 6.88409C23.2604 7.04484 22.9287 7.31708 22.6954 7.66636C22.462 8.01564 22.3374 8.42628 22.3374 8.84635C22.338 9.40946 22.562 9.94932 22.9602 10.3475C23.3584 10.7457 23.8982 10.9697 24.4613 10.9703ZM24.4613 7.93609C24.6414 7.93609 24.8174 7.98948 24.9671 8.0895C25.1167 8.18952 25.2334 8.33168 25.3023 8.49801C25.3712 8.66434 25.3892 8.84736 25.3541 9.02394C25.319 9.20051 25.2323 9.3627 25.105 9.49C24.9777 9.61731 24.8155 9.704 24.6389 9.73912C24.4624 9.77425 24.2793 9.75622 24.113 9.68732C23.9467 9.61843 23.8045 9.50176 23.7045 9.35207C23.6045 9.20238 23.5511 9.02639 23.5511 8.84635C23.5513 8.60502 23.6473 8.37364 23.818 8.20299C23.9886 8.03234 24.22 7.93635 24.4613 7.93609Z" fill="black"/>
<path d="M24.1577 20.0714C24.1577 19.9105 24.0938 19.7561 23.9799 19.6423C23.8661 19.5285 23.7118 19.4646 23.5508 19.4646H15.0551C14.8941 19.4646 14.7398 19.5285 14.626 19.6423C14.5122 19.7561 14.4482 19.9105 14.4482 20.0714C14.4482 20.2324 14.5122 20.3867 14.626 20.5005C14.7398 20.6143 14.8941 20.6783 15.0551 20.6783H23.5508C23.7118 20.6783 23.8661 20.6143 23.9799 20.5005C24.0938 20.3867 24.1577 20.2324 24.1577 20.0714Z" fill="black"/>
</svg>
