<svg width="32" height="32" viewBox="0 0 32 32" fill="none" xmlns="http://www.w3.org/2000/svg">
<path d="M23.5753 24.8415C23.2207 24.8415 22.9333 25.1289 22.9333 25.4834C22.9333 26.5453 22.0694 27.4091 21.0076 27.4091H3.89021C2.82834 27.4091 1.96448 26.5453 1.96448 25.4834V4.94245C1.96448 4.58793 1.67709 4.30054 1.32257 4.30054C0.968061 4.30054 0.680664 4.58787 0.680664 4.94245V25.4834C0.680664 27.0334 1.78509 28.3301 3.2483 28.6283V30.6187C3.2483 30.9732 3.5357 31.2606 3.89021 31.2606H21.0077C21.3623 31.2606 21.6496 30.9732 21.6496 30.6187V28.6283C23.1128 28.3301 24.2172 27.0334 24.2172 25.4834C24.2172 25.1289 23.9298 24.8415 23.5753 24.8415ZM20.3657 29.9767H4.53207V28.6929H20.3657V29.9767Z" fill="black"/>
<path d="M27.8551 5.15585H24.2177V1.51838C24.2177 1.16386 23.9303 0.876465 23.5757 0.876465H1.32306C0.968549 0.876465 0.681152 1.16386 0.681152 1.51838C0.681152 1.87289 0.968549 2.16029 1.32306 2.16029H11.8075V6.86759H9.02592C8.67141 6.86759 8.38401 7.15498 8.38401 7.5095V16.0682C8.38401 16.4227 8.67141 16.7101 9.02592 16.7101H15.8729C16.2275 16.7101 16.5148 16.4227 16.5148 16.0682V7.5095C16.5148 7.15498 16.2275 6.86759 15.8729 6.86759H13.0913V2.16029H22.9338V22.0594C22.9338 22.4139 23.2212 22.7013 23.5757 22.7013C23.9303 22.7013 24.2177 22.4139 24.2177 22.0594V21.8453H27.8551C29.6249 21.8453 31.0647 20.4056 31.0647 18.6358V8.3654C31.0646 6.59556 29.6248 5.15585 27.8551 5.15585ZM15.231 8.15141V15.4263H9.66783V8.15141H15.231ZM24.2177 9.86315H26.3573V17.1381H24.2177V9.86315ZM29.7808 18.6358C29.7808 19.6977 28.9169 20.5616 27.8551 20.5616H24.2177V18.4219H26.9992C27.3538 18.4219 27.6411 18.1345 27.6411 17.78V9.22124C27.6411 8.86672 27.3538 8.57933 26.9992 8.57933H24.2177V6.43967H27.8551C28.9169 6.43967 29.7809 7.30352 29.7809 8.3654L29.7808 18.6358Z" fill="black"/>
</svg>
