<svg width="41" height="41" viewBox="0 0 41 41" fill="none" xmlns="http://www.w3.org/2000/svg">
<path d="M39.9425 32.1046L35.5446 16.8334C35.0592 15.1778 33.6919 13.9304 31.9986 13.5983C30.8496 12.0071 29.4101 11.7496 28.0366 11.3733C28.5473 9.4723 28.4078 7.45517 27.6404 5.64249C26.9074 3.89287 24.9858 0.954834 20.2644 0.954834C15.543 0.954834 13.6214 3.89287 12.895 5.64249C12.1276 7.45517 11.9881 9.4723 12.4988 11.3733C11.0593 11.7629 9.67255 12.0335 8.53676 13.5983C6.84599 13.9326 5.48166 15.1796 4.99734 16.8334L0.586278 32.1046C0.297502 33.1001 0.493123 34.1734 1.11455 35.0031L0.606089 36.9838C0.520104 37.3235 0.572699 37.6834 0.752289 37.9843C0.931879 38.2853 1.22373 38.5025 1.56358 38.5881L5.40015 39.5785C5.73994 39.6667 6.10085 39.6159 6.40317 39.4376C6.7055 39.2592 6.92435 38.9678 7.01138 38.6277L7.51984 36.647C7.81372 36.5094 8.08707 36.3316 8.33206 36.1189C8.5451 36.806 9.04287 37.3686 9.69896 37.6638V39.2484C9.69896 39.9776 10.2902 40.5688 11.0196 40.5688H29.5091C30.2385 40.5688 30.8298 39.9776 30.8298 39.2484V37.6638C31.4873 37.3671 31.9853 36.8018 32.1967 36.1123C32.4417 36.325 32.7151 36.5028 33.0089 36.6404L33.5174 38.6211C33.665 39.2052 34.1893 39.6154 34.7919 39.6181C35.023 39.6181 34.739 39.6709 38.9586 38.5947C39.2987 38.5077 39.5901 38.2889 39.7685 37.9866C39.947 37.6843 39.9977 37.3235 39.9095 36.9838L39.401 35.0031C40.027 34.1757 40.2276 33.1022 39.9425 32.1046ZM13.5619 8.29002C14.0879 7.70246 14.7029 7.20117 15.3845 6.8045C14.9618 7.70326 14.866 8.72133 15.1137 9.68312C15.5826 11.7298 16.7316 12.7466 18.1051 14.0935C16.5731 13.2286 14.744 12.3307 14.143 11.71C13.661 11.2545 13.3704 9.88119 13.5619 8.29002ZM19.7889 18.1209L20.0861 16.9391C20.1149 16.8657 20.1856 16.8175 20.2644 16.8175C20.3432 16.8175 20.4139 16.8657 20.4427 16.9391L20.7398 18.1209H19.7889ZM20.2644 14.5886C19.0428 12.7268 16.9627 11.9477 16.4014 9.39261C16.1551 8.55934 16.3166 7.6587 16.8372 6.96296C18.739 4.57951 25.0717 5.22654 24.101 9.39261C23.5661 11.9543 21.519 12.6806 20.2644 14.5886ZM25.415 9.68312C25.6616 8.72402 25.5682 7.70916 25.1509 6.8111C25.8328 7.20719 26.4461 7.71109 26.9668 8.30323C27.1583 9.88779 26.8546 11.2611 26.3989 11.71C25.7848 12.324 23.9557 13.2286 22.4369 14.0935C23.7246 12.839 24.933 11.7893 25.415 9.68312ZM20.2644 2.2753C23.9293 2.2753 25.5933 4.256 26.3593 6.01222C25.5843 5.47966 24.7341 5.06575 23.8368 4.78419C21.7535 4.15949 19.5429 4.0912 17.4249 4.58612C16.2686 4.8695 15.1696 5.34967 14.1761 6.00562C14.9355 4.256 16.6061 2.2753 20.2644 2.2753ZM5.73693 38.2976L1.89375 37.3139L2.24373 35.9472C2.75879 36.2113 2.90407 36.2179 5.34732 36.8385C5.58746 36.8974 5.83316 36.9306 6.0803 36.9375L5.73693 38.2976ZM8.10754 34.0721C7.99059 34.5975 7.66481 35.0527 7.20517 35.333C6.74552 35.6132 6.19161 35.6943 5.67089 35.5577C3.28046 34.9502 2.85124 34.937 2.32297 34.3824C1.83996 33.8742 1.66165 33.1485 1.85413 32.4744L6.25199 17.2032C6.48905 16.3629 7.04939 15.6507 7.81039 15.2225C7.74475 15.5395 7.71375 15.8627 7.71794 16.1864C8.2264 35.0625 8.2198 33.5373 8.10094 34.0721H8.10754ZM9.03862 16.1402C9.02319 15.3776 9.30499 14.6389 9.82442 14.0803C10.7027 13.0899 11.7262 12.9447 13.1261 12.5617C14.1034 13.6511 17.4117 15.0244 18.9701 16.1996C18.7984 16.4835 18.8381 16.4637 18.3098 18.6161C18.2597 18.8135 18.3035 19.0231 18.4286 19.1839C18.6664 19.4876 18.9107 19.4348 19.6107 19.4348V23.3962H16.9627C15.9182 23.3938 15.0513 24.2028 14.9817 25.2448C14.8958 26.4134 14.4732 27.932 12.9082 28.5064C12.1618 28.813 11.6759 29.5416 11.68 30.3484V32.646C11.68 33.7399 12.5669 34.6267 13.661 34.6267H19.6041V36.6074H10.8678C10.1901 36.642 9.60659 36.1344 9.54708 35.4586L9.03862 16.1402ZM19.6041 33.3063H13.661C13.2963 33.3063 13.0007 33.0107 13.0007 32.646V30.3484C13.0012 30.089 13.1536 29.854 13.3903 29.7476C15.127 29.0874 16.1703 27.549 16.3222 25.3438C16.3426 25.0023 16.6206 24.7329 16.9627 24.7232H19.6041V33.3063ZM20.9247 24.7232H23.5661C23.9159 24.7226 24.2054 24.9948 24.2264 25.3438C24.3783 27.549 25.4216 29.1138 27.1583 29.7476C27.395 29.854 27.5474 30.089 27.5479 30.3484V32.646C27.5479 33.0107 27.2523 33.3063 26.8876 33.3063H20.9247V24.7232ZM11.0196 37.9279H19.6041V39.2484H11.0196V37.9279ZM20.9247 39.2484V37.9279H29.5091V39.2484H20.9247ZM29.661 36.6074H20.9247V34.6267H26.8678C27.9619 34.6267 28.8488 33.7399 28.8488 32.646V30.3484C28.8458 29.5375 28.3487 28.8103 27.5942 28.513C26.0292 27.9386 25.6131 26.42 25.5207 25.2514C25.4518 24.2195 24.6004 23.4143 23.5661 23.4028H20.9247V19.4414C21.6313 19.4414 21.869 19.4942 22.1067 19.1905C22.2319 19.0297 22.2757 18.8201 22.2256 18.6227C21.6907 16.5033 21.7171 16.4835 21.5653 16.2062C23.1303 15.031 26.432 13.6577 27.4093 12.5683C28.7894 12.9447 29.8393 13.0965 30.711 14.0935C31.2272 14.6483 31.5067 15.3826 31.4902 16.1402L30.9817 35.452C30.9255 36.1304 30.341 36.6418 29.661 36.6074ZM32.4344 34.0721L32.3816 33.8344C32.3719 33.8118 32.3609 33.7897 32.3486 33.7684C32.8505 14.5688 32.8637 15.9817 32.7184 15.2489C33.4794 15.6771 34.0397 16.3893 34.2768 17.2296L38.6747 32.5008C38.8215 33.0149 38.7542 33.5666 38.4881 34.0304C38.222 34.4942 37.7796 34.8307 37.2615 34.9634C34.9239 35.5643 34.4947 35.7821 33.7683 35.5511C33.0901 35.3337 32.5809 34.769 32.4344 34.0721ZM34.7919 38.2976L34.4419 36.9375C34.6912 36.9306 34.9391 36.8974 35.1815 36.8385C37.6181 36.2179 37.7766 36.1783 38.2784 35.9472L38.6284 37.3139L34.7919 38.2976Z" fill="black"/>
</svg>
