<svg width="23" height="40" viewBox="0 0 23 40" fill="none" xmlns="http://www.w3.org/2000/svg">
<path d="M11.6051 9.76587C11.1806 9.76587 10.8359 10.1105 10.8359 10.5351C10.8359 10.9596 11.1806 11.3043 11.6051 11.3043C12.0297 11.3043 12.3743 10.9596 12.3743 10.5351C12.3743 10.1105 12.0297 9.76587 11.6051 9.76587Z" fill="black"/>
<path d="M12.375 39.1516C12.375 39.5765 12.7193 39.9208 13.1442 39.9208H21.6054C22.0303 39.9208 22.3746 39.5765 22.3746 39.1516V10.9002C22.3746 8.5941 21.8422 6.28529 20.8362 4.20814V1.3068C20.8362 0.881936 20.4919 0.537598 20.067 0.537598H3.14453C2.71966 0.537598 2.37532 0.881936 2.37532 1.3068V4.20844C1.36935 6.28529 0.836914 8.59441 0.836914 10.9005V39.1516C0.836914 39.5765 1.18125 39.9208 1.60612 39.9208H10.0674C10.4922 39.9208 10.8366 39.5765 10.8366 39.1516V18.4108L11.6058 16.8724L12.375 18.4108V39.1516ZM13.9134 38.3824V36.844H20.8362V38.3824H13.9134ZM12.375 3.61441V2.076H14.6826V3.61441H12.375ZM3.63009 5.15192H5.40797C5.18231 7.14193 4.0883 8.9096 2.40657 9.9985C2.51714 8.32819 2.9339 6.675 3.63009 5.15192ZM10.8366 3.61441H8.52895V2.076H10.8366V3.61441ZM19.5814 5.15282C20.2779 6.6759 20.6944 8.32819 20.8053 9.9985C19.1235 8.9099 18.0292 7.14283 17.8036 5.15282H19.5814ZM19.2978 3.61441H16.221V2.076H19.2978V3.61441ZM3.91373 2.076H6.99054V3.61441H3.91373V2.076ZM2.37532 38.3824V36.844H9.29816V38.3824H2.37532ZM12.2938 14.8084C12.1634 14.5479 11.8972 14.3833 11.6058 14.3833C11.3143 14.3833 11.0481 14.5479 10.9177 14.8084L9.37928 17.8852C9.3261 17.9922 9.29816 18.11 9.29816 18.2293V35.3056H2.37532V11.7815L2.43692 11.7505C3.80616 11.0664 4.95516 10.0162 5.76012 8.71399C6.42957 7.6308 6.8355 6.41269 6.95359 5.15282H10.8366V7.46043C10.8366 7.8853 11.1809 8.22963 11.6058 8.22963C12.0306 8.22963 12.375 7.8853 12.375 7.46043V5.15282H16.2579C16.376 6.41269 16.782 7.6311 17.4514 8.71399C18.2564 10.0162 19.4054 11.0664 20.774 11.7502L20.8362 11.7815V35.3056H13.9134V18.2293C13.9134 18.11 13.8857 17.9922 13.8323 17.8852L12.2938 14.8084Z" fill="black"/>
</svg>
