<svg width="43" height="52" viewBox="0 0 43 52" fill="none" xmlns="http://www.w3.org/2000/svg">
<path d="M41.8604 22.8449V14.6904C41.8604 12.944 40.6107 11.4845 38.9588 11.158V1.51418C38.9588 0.824636 38.3978 0.263672 37.7087 0.263672H6.39859C5.70905 0.263672 5.14809 0.824636 5.14809 1.51418V2.60239C5.14809 3.01675 5.48404 3.3527 5.89839 3.3527C6.31274 3.3527 6.64869 3.01675 6.64869 2.60239V1.76389H37.4586V11.1137H34.6863C33.6988 11.1137 32.8952 11.9173 32.8952 12.9048C32.8952 13.2928 33.0207 13.6515 33.2316 13.9455C33.0207 14.2392 32.8952 14.5978 32.8952 14.9863C32.8952 15.9738 33.6988 16.777 34.6863 16.777H37.4586V17.4642H6.64869V16.777H9.33199C10.3195 16.777 11.1227 15.9738 11.1227 14.9863C11.1227 14.5978 10.9972 14.2392 10.7863 13.9455C10.9972 13.6515 11.1227 13.2928 11.1227 12.9048C11.1227 11.9173 10.3195 11.1137 9.33199 11.1137H6.64869V6.02815C6.64869 5.6138 6.31274 5.27785 5.89839 5.27785C5.48404 5.27785 5.14809 5.6138 5.14809 6.02815V11.1423C3.45265 11.4332 2.15785 12.913 2.15785 14.6904V22.8379C1.50476 22.8782 0.985352 23.4208 0.985352 24.084V31.8591C0.985352 36.3273 2.95794 40.5253 6.39742 43.383C6.73768 43.6664 7.00895 43.9761 7.28884 44.3368C7.89214 45.1808 8.22574 46.2047 8.22574 47.2807V50.3945C8.22574 51.084 8.78671 51.645 9.47625 51.645H34.4621C35.1512 51.645 35.7122 51.084 35.7122 50.3945V47.2807C35.7122 46.2129 36.0446 45.1909 36.6452 44.347C36.8913 44 37.1912 43.6723 37.5186 43.4018C40.9721 40.5437 42.9526 36.3367 42.9526 31.8591V24.084C42.9526 23.4482 42.4751 22.9229 41.8604 22.8449ZM37.7087 18.9644C38.3978 18.9644 38.9588 18.4035 38.9588 17.7143V16.0267C38.9588 15.6124 38.6232 15.2768 38.2089 15.2768C38.1654 15.2768 38.1234 15.2811 38.0823 15.2882C38.0411 15.2811 37.9992 15.2768 37.956 15.2768H34.6859C34.526 15.2768 34.3954 15.1467 34.3954 14.9863C34.3954 14.826 34.526 14.6958 34.6859 14.6958H37.956C38.3704 14.6958 38.7063 14.3599 38.7063 13.9455C38.7063 13.5312 38.3704 13.1952 37.956 13.1952H34.6859C34.526 13.1952 34.3954 13.0651 34.3954 12.9048C34.3954 12.7444 34.526 12.6143 34.6859 12.6143H38.2559C38.31 12.6143 38.3622 12.6084 38.4127 12.5974C39.4994 12.6766 40.3598 13.5841 40.3598 14.6904V22.8339H37.0901V20.2588C37.0901 19.888 36.8866 19.5493 36.5585 19.3749C36.39 19.2847 36.2657 19.1373 36.2018 18.9648H37.7087V18.9644ZM34.4503 24.084V31.8591C34.4503 33.2237 34.0309 34.5189 33.2547 35.606C33.0418 35.9004 32.809 36.1779 32.5518 36.4347C31.3464 37.6381 29.7011 38.3335 27.9759 38.3335H27.0198V38.2426C27.62 37.5742 28.0951 36.7855 28.3997 35.9078C29.8105 35.4558 30.7921 34.1406 30.7921 32.6212C30.7921 31.4542 29.9124 30.4887 28.7811 30.353V27.7489C28.7811 25.1025 26.6282 22.9496 23.9821 22.9496H19.7947C17.1482 22.9496 14.9953 25.1025 14.9953 27.7489V30.3546C13.8711 30.4969 12.9988 31.4589 12.9988 32.6212C12.9988 34.132 13.9738 35.4448 15.3752 35.9023C15.6939 36.8227 16.1996 37.6452 16.8405 38.3335H15.9616C14.2219 38.3335 12.5763 37.6358 11.3712 36.4241C11.0866 36.1379 10.8314 35.8247 10.6025 35.4923C9.87806 34.4284 9.48762 33.1739 9.48762 31.8591V24.084C9.48762 23.46 9.02701 22.9425 8.42802 22.85V20.5344C8.94194 20.1636 9.27633 19.5948 9.35042 18.9644H34.6679C34.7416 19.5948 35.076 20.1636 35.5899 20.5344V22.8394C34.9521 22.8959 34.4503 23.4321 34.4503 24.084ZM16.6904 35.0807C16.6139 34.8027 16.3846 34.593 16.1008 34.5417C15.1729 34.3735 14.4994 33.5656 14.4994 32.6212C14.4994 32.192 14.8464 31.8423 15.2744 31.8376C15.4034 31.9419 15.5673 32.0042 15.7456 32.0042C16.16 32.0042 16.4959 31.6686 16.4959 31.2543C16.4959 28.8324 18.4662 26.8622 20.888 26.8622H22.8888C25.3106 26.8622 27.2809 28.8324 27.2809 31.2543C27.2809 31.6686 27.6164 32.0042 28.0312 32.0042C28.2099 32.0042 28.3738 31.9415 28.5028 31.8372H28.5079C28.9398 31.8372 29.2915 32.1888 29.2915 32.6212C29.2915 33.571 28.6137 34.3798 27.6792 34.5436C27.3938 34.5938 27.1629 34.8035 27.0857 35.083C26.4431 37.4119 24.3063 39.0384 21.8884 39.0384C19.4693 39.0384 17.3321 37.4108 16.6904 35.0807ZM16.5269 27.2958C16.7484 25.6905 18.1294 24.4502 19.7947 24.4502H23.9821C25.647 24.4502 27.0284 25.6905 27.2499 27.2958C26.1711 26.1084 24.6156 25.362 22.8888 25.362H20.888C19.1612 25.362 17.6057 26.1084 16.5269 27.2958ZM5.60517 12.5974C5.65574 12.6084 5.70827 12.6143 5.76197 12.6143H9.33199C9.49193 12.6143 9.62247 12.7444 9.62247 12.9048C9.62247 13.0647 9.49193 13.1952 9.33199 13.1952H5.9619C5.54754 13.1952 5.21159 13.5312 5.21159 13.9455C5.21159 14.3599 5.54754 14.6955 5.9619 14.6955H9.33199C9.49193 14.6955 9.62247 14.826 9.62247 14.9859C9.62247 15.1463 9.49193 15.2768 9.33199 15.2768H6.03481C5.99051 15.2686 5.94504 15.2639 5.89839 15.2639C5.48404 15.2639 5.14809 15.5994 5.14809 16.0138V17.7143C5.14809 18.4035 5.70905 18.9644 6.3982 18.9644H7.81649C7.7522 19.1373 7.62793 19.2843 7.45937 19.3745C7.13126 19.5493 6.9278 19.888 6.9278 20.2584V22.8335H3.65806V14.6904C3.65806 13.5837 4.51852 12.6766 5.60517 12.5974ZM2.48557 31.8591V24.3342H7.98701V31.8591C7.98701 33.3354 8.38647 34.7502 9.13285 35.9815L6.6142 41.5645C3.97912 39.0286 2.48557 35.546 2.48557 31.8591ZM7.78591 42.6155L10.167 37.3378C10.1905 37.3625 10.2152 37.3857 10.2387 37.41C10.2646 37.4366 10.2889 37.4641 10.3151 37.4903C10.3269 37.5021 10.3395 37.5127 10.352 37.5237C11.5476 38.7079 13.0874 39.4868 14.755 39.742L19.2996 50.1448H9.72596V47.2807C9.72596 45.5042 9.02505 43.8326 7.78591 42.6155ZM34.2116 47.2807V50.1448H24.4913L27.7772 42.6233C27.943 42.2434 27.7693 41.8013 27.3898 41.6354C27.0104 41.4696 26.5682 41.6429 26.402 42.0223L22.8539 50.1444H20.937L16.4328 39.8338H17.5073C17.7919 39.8338 18.0397 39.6754 18.1667 39.4418C19.2518 40.1395 20.5356 40.5386 21.8884 40.5386C23.1907 40.5386 24.429 40.1689 25.4874 39.519C25.2887 40.8052 24.1742 41.7934 22.8328 41.7934H20.9437C20.416 41.7934 19.9052 41.6405 19.467 41.3516C19.1212 41.1235 18.6559 41.2187 18.4278 41.5645C18.1996 41.9102 18.2949 42.3759 18.641 42.6041C19.3251 43.0553 20.1212 43.2936 20.9437 43.2936H22.8328C24.8935 43.2936 26.6101 41.7969 26.9551 39.8338H27.9759C30.0402 39.8338 32.0105 39.0251 33.4817 37.6213C33.5005 37.6064 33.5189 37.5903 33.5361 37.5734C33.5675 37.5429 33.5969 37.5111 33.6275 37.4801C33.6412 37.4664 33.6561 37.4531 33.6698 37.439L36.0513 42.7178C35.7906 42.9863 35.553 43.2776 35.3413 43.5892C35.3331 43.6017 35.3261 43.6143 35.3182 43.6268C34.6048 44.6923 34.2116 45.9605 34.2116 47.2807ZM41.452 31.8591C41.452 35.5938 39.9196 39.1183 37.2206 41.6621L34.7192 36.1167C35.5205 34.8553 35.9505 33.3927 35.9505 31.8591V24.3342H41.452V31.8591Z" fill="black"/>
<path d="M30.8727 7.07355C30.8727 6.6588 30.5368 6.32324 30.1224 6.32324H13.6683C13.2539 6.32324 12.918 6.65919 12.918 7.07355C12.918 7.48751 13.2539 7.82346 13.6683 7.82346H30.1224C30.5368 7.82346 30.8727 7.4879 30.8727 7.07355Z" fill="black"/>
<path d="M15.7401 10.0527C15.3258 10.0527 14.9902 10.3887 14.9902 10.803C14.9902 11.217 15.3258 11.5529 15.7401 11.5529H28.3667C28.7811 11.5529 29.1166 11.217 29.1166 10.803C29.1166 10.3887 28.7811 10.0527 28.3667 10.0527H15.7401Z" fill="black"/>
<path d="M20.0441 31.9277C20.0441 32.4107 19.6524 32.8023 19.1695 32.8023C18.6865 32.8023 18.2949 32.4107 18.2949 31.9277C18.2949 31.4444 18.6865 31.0527 19.1695 31.0527C19.6524 31.0527 20.0441 31.4444 20.0441 31.9277Z" fill="black"/>
<path d="M25.5499 31.9277C25.5499 32.4107 25.1587 32.8023 24.6754 32.8023C24.1924 32.8023 23.8008 32.4107 23.8008 31.9277C23.8008 31.4444 24.1924 31.0527 24.6754 31.0527C25.1587 31.0527 25.5499 31.4444 25.5499 31.9277Z" fill="black"/>
<path d="M23.1624 36.0846V34.8898C23.1624 34.2269 22.6249 33.6895 21.962 33.6895C21.2992 33.6895 20.7617 34.2269 20.7617 34.8898V36.0846C20.7617 36.7475 21.2992 37.285 21.962 37.285C22.6249 37.285 23.1624 36.7475 23.1624 36.0846Z" fill="black"/>
</svg>
