<svg id="Capa_1" enable-background="new 0 0 512 512" height="512" viewBox="0 0 512 512" width="512" xmlns="http://www.w3.org/2000/svg"><g><path d="m509.071 164.93-95.989-96.01c-1.244-1.244-2.735-2.087-4.314-2.539l-89.606-29.869c-.919-.304-2.09-.512-3.162-.512h-120c-1.104 0-2.303.228-3.162.513l-89.8 29.93c-1.958.678-3.609 1.705-4.969 3.478l-95.148 95.377c-3.897 3.906-3.894 10.231.008 14.134l63.64 63.64c3.917 3.914 10.267 3.903 14.167-.025l15.264-15.374v238.327c0 5.522 4.478 10 10 10h105c5.522 0 10-4.478 10-10s-4.478-10-10-10h-95v-372.796l71.308-23.766c6.286 32.189 34.691 56.562 68.692 56.562s62.406-24.373 68.692-56.562l71.308 23.77v372.792h-95c-5.522 0-10 4.478-10 10s4.478 10 10 10h105c5.522 0 10-4.478 10-10v-238.588l15.287 15.296c3.906 3.908 10.239 3.906 14.145.002l63.64-63.64c3.903-3.904 3.904-10.235-.001-14.14zm-435.457 56.903-49.48-49.481 71.866-72.039v98.976zm182.386-125.833c-24.146 0-44.348-17.205-48.994-40.01h97.988c-4.646 22.805-24.848 40.01-48.994 40.01zm182.362 125.495-22.362-22.376v-98.993l71.858 71.873z"/><path d="m196 366c-5.522 0-10 4.478-10 10s4.478 10 10 10h120c5.522 0 10-4.478 10-10s-4.478-10-10-10h-20v-170c0-5.522-4.478-10-10-10h-60c-2.652 0-5.195 1.054-7.071 2.929l-30 30c-1.876 1.876-2.929 4.418-2.929 7.071v30c0 5.522 4.478 10 10 10h20v100zm10-120v-15.857l24.142-24.143h45.858v160h-40v-110c0-5.522-4.478-10-10-10z"/><circle cx="256" cy="466" r="10"/></g></svg>